<svg id="Layer_1" data-name="Layer 1" xmlns="http://www.w3.org/2000/svg" viewBox="0 0 400 400"><defs><style>.cls-1{fill:#ffcb04;}.cls-2{fill:#004a8f;}</style></defs><title>kdu-csl</title><g id="layer1"><g id="g4148"><rect id="rect4138" class="cls-1" width="400" height="400"/></g><g id="g4183"><path id="path4153" class="cls-2" d="M205.53,262.42S166,205.49,171.88,155.69c-11.73-5-19.49-.74-17.51,14.2s9.79,51.78,51.16,92.53"/><path id="path4155" class="cls-2" d="M293.25,146.24s-102-31.57-153.19-7.82c-35.87,17,4.87,54.27,4.87,54.27s-78.8-19.94-48-63c54.16-54.57,182.27,3.87,196.31,16.54"/><path id="path4157" class="cls-2" d="M215.89,199S126,206.18,84.05,273.17c-15.4-11.71-18.38-28.35-2.4-42.81s58-45.78,134.24-31.33"/><path id="path4159" class="cls-2" d="M324.1,209c-26.51,56.9-75,76.73-125.56,82.39C307.9,232.75,301.29,150.75,301.29,150.75S343,162.46,324.1,209"/><path id="path4161" class="cls-2" d="M154.64,224.55s4.22,41.78,42.87,66.38c-23.3,8-51.36-6.22-62.57-24.81-9.86-19.82,1.56-32.28,19.7-41.57"/></g></g></svg>
