<svg id="Layer_1" data-name="Layer 1" xmlns="http://www.w3.org/2000/svg" viewBox="0 0 400 400"><defs><style>.cls-1{fill:#929497;}.cls-2{fill:#ec1c24;}.cls-3{fill:#fff;}.cls-4{fill:#1b75bb;}</style></defs><title>spd</title><rect class="cls-1" x="227.9" y="95.53" width="1.13" height="67.61"/><polygon class="cls-1" points="230.62 164.74 226.3 159.27 226.3 93.93 230.62 93.93 230.62 164.74"/><rect class="cls-1" x="243.13" y="95.53" width="1.12" height="67.61"/><rect class="cls-1" x="241.54" y="93.93" width="4.32" height="70.81"/><rect class="cls-1" x="258.37" y="95.53" width="1.12" height="67.61"/><rect class="cls-1" x="256.78" y="93.93" width="4.32" height="70.81"/><rect class="cls-1" x="273.62" y="95.53" width="1.13" height="67.61"/><rect class="cls-1" x="272.02" y="93.93" width="4.32" height="70.81"/><rect class="cls-1" x="288.86" y="95.53" width="1.12" height="67.61"/><rect class="cls-1" x="287.26" y="93.93" width="4.32" height="70.81"/><rect class="cls-1" x="304.11" y="95.53" width="1.12" height="67.61"/><rect class="cls-1" x="302.5" y="93.93" width="4.32" height="70.81"/><rect class="cls-1" x="106.43" y="95.53" width="1.12" height="12.96" transform="translate(-2.02 2.16) rotate(-1.15)"/><polygon class="cls-1" points="104.99 110.12 104.66 93.97 108.98 93.89 109.31 110.04 104.99 110.12"/><rect class="cls-1" x="121.63" y="95.53" width="1.13" height="16.43"/><rect class="cls-1" x="120.04" y="93.93" width="4.32" height="19.63"/><rect class="cls-1" x="136.81" y="95.53" width="1.12" height="16.43"/><rect class="cls-1" x="135.21" y="93.93" width="4.32" height="19.63"/><rect class="cls-1" x="151.99" y="95.53" width="1.13" height="16.43"/><rect class="cls-1" x="150.39" y="93.93" width="4.32" height="19.63"/><rect class="cls-1" x="167.16" y="95.53" width="1.12" height="16.43"/><rect class="cls-1" x="165.56" y="93.93" width="4.32" height="19.63"/><rect class="cls-1" x="182.35" y="95.53" width="1.11" height="16.43"/><rect class="cls-1" x="180.74" y="93.93" width="4.32" height="19.63"/><rect class="cls-1" x="197.51" y="95.53" width="1.12" height="16.43"/><rect class="cls-1" x="195.91" y="93.93" width="4.32" height="19.63"/><rect class="cls-1" x="212.69" y="95.53" width="1.12" height="16.43"/><rect class="cls-1" x="211.09" y="93.93" width="4.32" height="19.63"/><path class="cls-2" d="M89.66,205a5,5,0,0,1,.53-.11,39.27,39.27,0,0,0,17-5.22,65.5,65.5,0,0,0,10.59-7.59c4.15-3.56,8-7.46,11.77-11.4,3.58-3.7,7.15-7.45,11-10.93a77.2,77.2,0,0,1,10.65-8.21,41.49,41.49,0,0,1,14.79-5.72,57.39,57.39,0,0,1,13.48-.8,81.12,81.12,0,0,1,14.93,2.26,162.45,162.45,0,0,1,20.09,6.43c.78.3,1.52.69,2.3,1,.34.14.7.23,1.05.34s.67.2,1,.33c5.37,2.09,10.72,4.23,16.11,6.28A146.12,146.12,0,0,0,252,177.13a82,82,0,0,0,11.33,1.92,83.68,83.68,0,0,0,11.63.38,77.55,77.55,0,0,0,29.2-6.52c.67-.3,1.3-.62,2-.93l.57-.23c-.2.35-.32.58-.45.78a55.15,55.15,0,0,1-16.63,17.23,75.21,75.21,0,0,1-20.9,9.74,97.28,97.28,0,0,1-15.86,3.37,107.74,107.74,0,0,1-19.83.76,93.08,93.08,0,0,1-17.5-2.49c-4.06-1-8-2.39-12-3.71S195.9,194.9,192,194a68.43,68.43,0,0,0-11.37-1.69,62.73,62.73,0,0,0-9,.07,60.12,60.12,0,0,0-22.76,6.3c-2.54,1.3-5.08,2.62-7.63,3.91A69.91,69.91,0,0,1,123,208.75a58.77,58.77,0,0,1-13,1.23,53.84,53.84,0,0,1-20.4-5"/><path class="cls-3" d="M311,161.43a10.45,10.45,0,0,1-1.93,2.63,17.26,17.26,0,0,1-3.51,2.66c-1.95,1.14-4.09,2-6.12,2.95-4.4,2.19-9.17,3.12-14,3.93a80.31,80.31,0,0,1-16.61.9,98.18,98.18,0,0,1-10.67-1.11,112.8,112.8,0,0,1-21.4-5.71c-5.61-2-11.2-4.16-16.79-6.24-1.89-1-3.82-2-5.67-3.05a85.34,85.34,0,0,1-12.73-9.45c-3.92-3.46-7.77-7-11.66-10.5a132.46,132.46,0,0,0-12.3-10.09,60.47,60.47,0,0,0-17.79-8.85,71,71,0,0,0-12-2.39,136,136,0,0,0-13.84-.82c-3.07,0-6.14-.07-9.21-.13a79.41,79.41,0,0,1-13.59-1.24,41,41,0,0,1-14.53-5.46c-.2-.12-.38-.26-.58-.39,0,0,0-.06-.12-.17l1.09.11c2.93.32,5.86.67,8.8.94a110.69,110.69,0,0,0,12.75.38,103.13,103.13,0,0,0,16.82-1.8c6.13-1.16,12.17-2.72,18.24-4.19,4.28-1,8.57-2,12.92-2.79a79.75,79.75,0,0,1,18.18-1.16,64.92,64.92,0,0,1,20,4.16,43.79,43.79,0,0,1,8.36,4.45c3.32,2.21,6.4,4.72,9.5,7.22,6,4.87,11.81,10,17.62,15.1s11.86,10.36,18.11,15.18a130.74,130.74,0,0,0,14.75,10.1,62.43,62.43,0,0,0,14,6.1,38.48,38.48,0,0,0,11.14,1.55,29.31,29.31,0,0,0,12.21-2.67l.32-.15a1.65,1.65,0,0,1,.24,0"/><path class="cls-4" d="M201.35,154.32c-2.14-.57-4.27-1.16-6.4-1.69a92,92,0,0,0-11.77-2.16,58.57,58.57,0,0,0-7.72-.42,55.33,55.33,0,0,0-22.17,4.82,52.78,52.78,0,0,0-11,6.94,100.58,100.58,0,0,0-8.54,7.7c-4,4-7.86,8.12-11.85,12.12-2.29,2.31-4.71,4.49-7.07,6.74a46,46,0,0,1-8.93,6.64,38.28,38.28,0,0,1-12.81,4.72c-.76.12-1.52.22-2.28.29a8.54,8.54,0,0,1-1,0,4.14,4.14,0,0,1-.07-.55c0-.26,0-.52,0-.78q0-44.25.07-88.52v-1.84a6.27,6.27,0,0,1,1.26,1c.31.25.58.54.9.78a40.37,40.37,0,0,0,14.58,6.74,57.94,57.94,0,0,0,9,1.55c2.56.22,5.13.43,7.71.56,3,.15,6,.2,9.06.3,2.53.09,5.07.15,7.59.29,3.4.19,6.81.49,10.19,1a54.66,54.66,0,0,1,23.44,9.27,103.71,103.71,0,0,1,11.33,9.15c3.91,3.59,7.75,7.25,11.63,10.85,1.5,1.39,3.05,2.73,4.57,4.1.14.12.28.24.4.36l-.06.07"/><path class="cls-4" d="M92.91,285a49,49,0,0,0,21.32,5.3c8.83,0,13.5-3.66,13.5-9.21,0-5.3-4-8.32-14.26-12C99.34,264.22,90.14,256.41,90.14,244c0-14.51,12.1-25.6,32.16-25.6a51.92,51.92,0,0,1,21.7,4.29l-4.29,15.51a40.35,40.35,0,0,0-17.79-4c-8.32,0-12.36,3.79-12.36,8.2,0,5.42,4.8,7.82,15.78,12,15,5.55,22.07,13.37,22.07,25.35,0,14.26-11,26.37-34.31,26.37-9.72,0-19.31-2.52-24.1-5.18Z"/><path class="cls-4" d="M179.45,259.56a29.37,29.37,0,0,0,6.44.5c10.21,0,16.52-5.17,16.52-13.87,0-7.83-5.43-12.49-15-12.49a32.16,32.16,0,0,0-8,.76Zm-19-38.6a156.08,156.08,0,0,1,26-1.77c11.86,0,20.31,2.27,26,6.81a24.88,24.88,0,0,1,9.08,19.68c0,8.33-2.78,15.39-7.83,20.19-6.55,6.18-16.27,8.95-27.62,8.95a48.91,48.91,0,0,1-6.56-.37v30.4h-19Z"/><path class="cls-4" d="M253,290.34a35.15,35.15,0,0,0,6.68.38c17.41.12,28.77-9.47,28.77-29.77.12-17.67-10.23-27-26.75-27a39.77,39.77,0,0,0-8.7.76ZM233.69,221a171.11,171.11,0,0,1,26-1.77c16.15,0,26.62,2.9,34.82,9.08,8.83,6.56,14.38,17,14.38,32,0,16.28-5.93,27.51-14.13,34.44-8.95,7.45-22.58,11-39.23,11a166.7,166.7,0,0,1-21.83-1.26Z"/><rect class="cls-1" x="91.28" y="103.76" width="1.12" height="100.87"/><rect class="cls-1" x="89.68" y="93.93" width="4.32" height="120.51"/></svg>
