<svg id="Layer_1" data-name="Layer 1" xmlns="http://www.w3.org/2000/svg" viewBox="0 0 400 400"><defs><style>.cls-1{fill:#ed1c24;}</style></defs><title>kscm</title><g id="layer1"><g id="layer1-5"><g id="g12"><path id="path1014" class="cls-1" d="M208.26,156.46l-8.73-14.82h8.33l6.55,8.53,7-8.53h8.23l-9.48,14.82Zm28.91,68.81c-8.47,2-14.52,4-22.9,4-21,.68-32.18-13.66-32.18-33s9.18-37.49,34.32-37.49c9.28.23,11.45,1.34,19.39,3.4v19.38h-9.57c0-1.28,1.26-15.93-10.29-15.93-11.06,0-20.46,8.46-20.46,29.49,0,8.42,2.22,27,18.86,27,8.74,0,13.43-3.63,13.43-14.76h9.4"/><path id="path1016" class="cls-1" d="M292.13,241.47v-6.06c10.24,0,8.56-1.5,8.78-8V182.66L281,241.33h-9.72l-19.39-58V228c0,7,.14,7.45,8.54,7.45v6.08H232.28v-6.08c9.88,0,10.42-.29,10.42-7.73V184.8c0-4.12-3-3.16-7.06-3.16v-6h26.08l16,50.2,16.69-50.41H323.1v5.29c-9.64,0-9.5,0-9.5,7.44v39.51c0,7-.32,7.94,9.77,7.73v6.06"/><path id="path1018" class="cls-1" d="M113.86,229.3V223h4.47c1.81,0,2.66-1.24,1.26-3L99.71,194.64v21c0,6.18,0,7.44,9.24,7.44v6.18H76l0-6c11.18.12,10.86-1.05,10.89-7.64V177c0-6.58.26-7.76-10.92-7.64l0-6h33v6.18c-9.24,0-9.21,1.25-9.21,7.44v16.89l20.5-23.09c1.91-2.25-.37-1.86-5.19-1.86v-5.66h26.36v5.86c-8.25-.2-8.37.22-11.53,3.63l-16.43,18.79,21.26,26.68c4.08,5,4.15,4.77,9.62,4.77v6.26"/><path id="path1020" class="cls-1" d="M158.89,215.15c2.07.88,5.62,2.44,8,3.71,3.42,1.89,6,4.68,6.13,8.63.3,7.91-10.12,12.45-17.62,10.8C145,237,144.81,230,144.42,223.17h-9l0,17.06c6.42,2.14,11.55,4.24,20.38,4.4,15,.58,29.47-6.4,29.47-20.22,0-6.58-2.51-10.84-6.65-14-3.24-2.52-11.74-5.54-15.3-7l.19.1s-6.16-2.52-9.6-4.42-5.62-4.55-5.75-8.5c-.25-6.84,7.64-10.75,13.73-10.09,8.92,1,10.74,9.29,11,14.75h9.27l0-16.78c-6.42-2.13-12-3.9-20.76-4.07-12.69-.25-26,6.1-26,19.15,0,6.59,2.53,10.26,6.67,13.48S159,215.2,159,215.2"/><path id="path1022" class="cls-1" d="M272.29,152.49l.68.29,5.22-12.05,5.42,12.49,15.24,0-12.05,7.49,5.6,12.53-14.22-7.84-14.3,8,5.69-12.71-12.06-7.49,15.26,0,.2-.44-.68-.29v-.76l-20,0,15.4,9.55-7,15.64,17.5-9.83,17.38,9.59-6.88-15.4,15.38-9.55-19.49,0L278.19,137l-6.58,15.19.68.3v-.76"/></g></g></g></svg>
