<svg id="Layer_1" data-name="Layer 1" xmlns="http://www.w3.org/2000/svg" viewBox="0 0 400 400"><defs><style>.cls-1{fill:#164194;}.cls-2{fill:#fff;}</style></defs><title>ods</title><rect class="cls-1" width="400" height="400"/><g id="layer1"><path id="path4438-5" class="cls-2" d="M100.74,166.45c-21.55,0-37.81,14-37.81,36.2s16.27,37,37.81,37,37.91-14.77,37.91-37-16.35-36.2-37.91-36.2m0,51.66c-7.79,0-13.46-6.46-13.46-15.46s5.67-14.87,13.46-14.87,13.48,5.87,13.48,14.87-5.78,15.46-13.48,15.46"/><path id="path4442-3" class="cls-2" d="M172.47,168.41H146.52v69.27h27.92c20.64,0,39.71-10.67,39.71-35,0-26.51-19.75-34.24-41.68-34.24m.89,49.31H169V188.17h5.22c9.83,0,16.21,5.38,16.21,14.28,0,10.77-6.19,15.27-17.1,15.27"/><path id="path4446-1" class="cls-2" d="M215.56,229.48l11-15.83c4.07,3.19,13.84,6.4,19.88,6.4,2.26,0,4.92-.38,5.09-2.82s-2.18-3.32-12.59-6.55c-10-3.13-19-8.32-19-20.46,0-17.21,16.44-23.77,30.91-23.77a43.46,43.46,0,0,1,27.46,10.27l-11.76,15c-5.7-4.14-11.64-6-15.49-6-3.64,0-6,.87-6,2.8s2,2.71,7.06,4.27c10.62,3.24,24.87,8.05,24.87,22.34,0,17.55-14.79,24.54-29.55,24.54-11.85,0-24.1-3.9-31.8-10.15"/><path id="path4450-2" class="cls-2" d="M317.67,149.56c-4.95-4.58-21.57-12.2-39.4-7.94,16.46,2.89,31.36,12.46,39.4,24.83,8-12.37,22.94-21.94,39.4-24.83-17.83-4.26-34.46,3.36-39.4,7.94"/></g></svg>
