<svg id="Layer_1" data-name="Layer 1" xmlns="http://www.w3.org/2000/svg" viewBox="0 0 400 400"><defs><style>.cls-1{fill:#fff;}</style></defs><title>pirati</title><g id="path2827"><path class="cls-1" d="M200,336.2A136.21,136.21,0,1,1,336.21,200,136.2,136.2,0,0,1,200,336.2Z"/><path d="M200,343a143,143,0,1,1,101.12-41.88A142.06,142.06,0,0,1,200,343Zm0-272.41A129.41,129.41,0,1,0,329.41,200,129.55,129.55,0,0,0,200,70.59Z"/></g><path id="path8" d="M131.82,125c15-4.37,78.2,4.24,65.28,65.38-4.7,22.25-30.49,33.08-43,42.45C124.53,255,150,307.64,150,307.64s-13.79-40.93,16.91-60.3c28.25-17.82,125.63-9.44,125.29-64.4-.64-105.3-164.72-67.32-160.39-57.91Z"/><rect id="rect10" x="144.43" y="94.91" width="12.48" height="154.82"/></svg>
