<svg id="Layer_1" data-name="Layer 1" xmlns="http://www.w3.org/2000/svg" viewBox="0 0 400 400"><defs><style>.cls-1{fill:#282661;}.cls-2{fill:#db1f2d;}.cls-3{fill:#fff;}</style></defs><title>ano</title><path class="cls-1" d="M246.94,187.4v-.25c0-24.53,19.78-44.43,46.15-44.43S339,162.38,339,186.91v.24c0,24.54-19.78,44.43-46.15,44.43a48.11,48.11,0,0,1-22-5.14c-8.34-4.28-13.18.47-21.13,3.43,5.48-5.48,9.61-10,4.29-18.45a45.12,45.12,0,0,1-7.07-24M161,144.64h22.08l35.19,45.17V144.64H241.7v85.43H220.89l-36.46-46.86v46.86H161V144.64Zm-63.7-.82h22.87l36.38,86H131.14l-6.2-15.26H92l-6.12,15.26H61l36.3-86Zm20.81,52.36-9.53-24.29-9.69,24.29Z"/><path class="cls-2" d="M338.76,237.51l-2.7,2.05h-1.27l1.83-2.05Zm-2,18.12h-1.27v-14h1.27Zm-17.32-12.82v12.82h-1.27V242.81h-3.42v-1.23h8.11v1.23Zm-16.76-1.23H304v10a4.71,4.71,0,0,1-1.43,2.81,4.35,4.35,0,0,1-3.25,1.36,4.63,4.63,0,0,1-4.69-4.66v-9.51h1.27v9.51a3.35,3.35,0,0,0,3.42,3.43,3.12,3.12,0,0,0,2.38-1,3.18,3.18,0,0,0,1-2.42Zm-21.76,11v-11h1.19v14.81l-8.26-11.67v10.91H272.6V240.89Zm-28.36-3.31v6.4h-1.19v-14h1.19V248h6.51v-6.41h1.2v14h-1.2v-6.4Zm-31.45-7.65v1.23h-6V248h6v1.24h-6v5.17h6v1.24H213.9V241.58Zm-1-4.06-2.7,2H216.2l1.75-2Zm-19.06,4.06-3.73,5.34,6.11,8.72H202L196.66,248l-1.27,1.77v5.92H194.2V241.58h1.19v6l4.21-6ZM183,252.93l.88.83a7.07,7.07,0,0,1-5,2,7,7,0,0,1-5.08-2.1,7.28,7.28,0,0,1,0-10.17,7.15,7.15,0,0,1,10.09-.05l-.88.82a6.15,6.15,0,0,0-4.13-1.62,5.74,5.74,0,0,0-4.21,1.73,5.94,5.94,0,0,0,0,8.42,5.75,5.75,0,0,0,4.21,1.74,6.16,6.16,0,0,0,4.13-1.63m-24.78,2.7h1.27v-14h-1.27ZM141.3,242.81v12.82h-1.19V242.81h-3.49v-1.23h8.1v1.23Zm-19.38,12.82h1.19v-14h-1.19Zm-19.3,0v-14h1.27V254.4h5.16v1.23ZM89.36,243.45a7.33,7.33,0,0,1,0,10.19,7,7,0,0,1-5.09,2.11,7.21,7.21,0,0,1,0-14.41,7,7,0,0,1,5.09,2.11m-5.09-.87a6,6,0,0,0-6,5.95,5.7,5.7,0,0,0,1.74,4.24,5.63,5.63,0,0,0,4.21,1.75,5.89,5.89,0,0,0,4.21-1.75,6,6,0,0,0,1.75-4.24,6,6,0,0,0-1.75-4.19,5.86,5.86,0,0,0-4.21-1.76m-22,8.34v4.71H61.08v-14h3.81A5,5,0,0,1,67.67,243a4.71,4.71,0,0,1,0,6.6,4.67,4.67,0,0,1-3.33,1.37Zm0-8.1v6.86h2.07a3.5,3.5,0,0,0,2.46-1,3.6,3.6,0,0,0,0-4.87,3.49,3.49,0,0,0-2.46-1Z"/><path class="cls-3" d="M300.72,189.21h11.83a17.68,17.68,0,0,1,5.24.64,7.67,7.67,0,0,1,3,1.72,4.94,4.94,0,0,1,1.51,2.5,12.06,12.06,0,0,1,.4,3,5.94,5.94,0,0,1-.8,3.19,6.27,6.27,0,0,1-2.06,2.26,9.84,9.84,0,0,1-3.1,1.35,14,14,0,0,1-3.73.46h-2.78V210h2.22v4.85H300.72V210h2.06V194h-2.06v-4.8Zm9.53,4.77v6.38h1.66a4,4,0,0,0,2.63-.79,2.75,2.75,0,0,0,.95-2.25,3.15,3.15,0,0,0-.87-2.5,3.63,3.63,0,0,0-2.55-.84Zm-25-4.77h12.15v4.84h-2.22V210h2.22v4.89H285.23V210h2.3V194.05h-2.3ZM298,181.83,292.45,187h-4.52l2.86-5.21Zm-35.18,7.38h11.59v4.84h-1.9V210h4.68v-4.66h6.2v9.55H262.83V210h2V194.05h-2Zm46.86-26.76H322.8v4.81h-3.74v-1.94h-3.49v3h4.13v2.89h-4.13v3.54h3.49v-2h3.74v4.91H309.69v-2.89h1.43v-9.44h-1.43v-2.87ZM294,177.65v-2.89h1.35v-9.44H294v-2.87h6.68a9.9,9.9,0,0,1,3.49.58,7.58,7.58,0,0,1,2.62,1.56,7.93,7.93,0,0,1,1.59,2.34,8.7,8.7,0,0,1,.56,2.91,7.57,7.57,0,0,1-2.15,5.78c-1.43,1.36-3.49,2-6.19,2Zm9.93-7.81a5.93,5.93,0,0,0-.24-1.68,4.2,4.2,0,0,0-.55-1.45,2.51,2.51,0,0,0-1-1,2.65,2.65,0,0,0-1.43-.38h-.88v9.44h.88a2.5,2.5,0,0,0,1.43-.4,2.46,2.46,0,0,0,1-1,4.55,4.55,0,0,0,.55-1.57,7.24,7.24,0,0,0,.24-1.91m-26.13-7.39h6.91v2.81h-1.19V170a14.5,14.5,0,0,0,.16,2.13,4.31,4.31,0,0,0,.39,1.29,1.27,1.27,0,0,0,.72.65,2.36,2.36,0,0,0,.87.17,8,8,0,0,0,1-.15,1.24,1.24,0,0,0,.63-.58,2.64,2.64,0,0,0,.48-1.28,15.78,15.78,0,0,0,.16-2.25v-4.62h-1.19v-2.87h6.43v2.81H292v5.28c0,2.59-.48,4.48-1.59,5.68a5.71,5.71,0,0,1-4.61,1.81,7,7,0,0,1-5-1.89c-1.19-1.18-1.75-3-1.75-5.49v-5.37h-1.19v-2.83Zm-14.77,15.2v-2.83h1.27v-9.57h-1.27v-2.8h8.1a6.89,6.89,0,0,1,4.05,1,3.22,3.22,0,0,1,1.27,2.76,5.43,5.43,0,0,1-.08,1.2,3.12,3.12,0,0,1-.32.92,2.07,2.07,0,0,1-.71.7,3.32,3.32,0,0,1-1,.55,7.56,7.56,0,0,1,1.12.46,3.69,3.69,0,0,1,.87.76,3.57,3.57,0,0,1,.87,2.48,3.88,3.88,0,0,1-1.43,3.36c-.87.7-2.38,1.05-4.52,1.05Zm5.79-12.33v3.27h1.28c.63,0,1-.16,1.19-.45a1.93,1.93,0,0,0,.31-1.23,1.73,1.73,0,0,0-.39-1.17,1.37,1.37,0,0,0-1-.42Zm1.75,9.5a1.65,1.65,0,0,0,1.19-.49,1.63,1.63,0,0,0,.56-1.37,2,2,0,0,0-.48-1.38,1.62,1.62,0,0,0-1.35-.54h-1.67v3.78Z"/></svg>
