<svg width="32" height="33" viewBox="0 0 32 33" fill="none" xmlns="http://www.w3.org/2000/svg">
<g clip-path="url(#clip0_554_27689)">
<path d="M32 16.0679C32 7.23574 24.8321 0.0678711 16 0.0678711C7.16787 0.0678711 0 7.23574 0 16.0679C0 24.0596 5.84964 30.6837 13.5118 31.8701V20.6817H9.42533V16.0679H13.5118V12.5416C13.5118 8.53749 15.8847 6.31298 19.5427 6.31298C21.2894 6.31298 23.1019 6.64253 23.1019 6.64253V10.5478H21.0917C19.0978 10.5478 18.4717 11.8001 18.4717 13.0524V16.0514H22.9207L22.2122 20.6652H18.4717V31.8536C26.1504 30.6837 32 24.0596 32 16.0679Z" fill="#1877F2"/>
<path d="M22.2286 20.6983L22.9372 16.0845H18.4882V13.0855C18.4882 11.8167 19.1308 10.5809 21.1082 10.5809H23.1185V6.65915C23.1185 6.65915 21.3059 6.32959 19.5592 6.32959C15.9011 6.32959 13.5283 8.5541 13.5283 12.5582V16.0845H9.44183V20.6983H13.5283V31.8867C14.3358 32.0186 15.1761 32.0845 16.0165 32.0845C16.8569 32.0845 17.6972 32.0186 18.5047 31.8867V20.6983H22.2286Z" fill="white"/>
</g>
<defs>
<clipPath id="clip0_554_27689">
<rect width="32" height="32" fill="white" transform="translate(0 0.0678711)"/>
</clipPath>
</defs>
</svg>
