<svg width="33" height="32" viewBox="0 0 33 32" fill="none" xmlns="http://www.w3.org/2000/svg">
<path d="M24.2333 23.7333C24.7889 23.7333 25.2613 23.5391 25.6507 23.1507C26.0391 22.7613 26.2333 22.2889 26.2333 21.7333C26.2333 21.1778 26.0391 20.7053 25.6507 20.316C25.2613 19.9276 24.7889 19.7333 24.2333 19.7333C23.6778 19.7333 23.2058 19.9276 22.8173 20.316C22.428 20.7053 22.2333 21.1778 22.2333 21.7333C22.2333 22.2889 22.428 22.7613 22.8173 23.1507C23.2058 23.5391 23.6778 23.7333 24.2333 23.7333ZM24.2333 27.7333C24.9222 27.7333 25.5498 27.5724 26.116 27.2507C26.6831 26.928 27.1556 26.5 27.5333 25.9667C27.0444 25.6778 26.5222 25.4556 25.9667 25.3C25.4111 25.1444 24.8333 25.0667 24.2333 25.0667C23.6333 25.0667 23.0556 25.1444 22.5 25.3C21.9444 25.4556 21.4222 25.6778 20.9333 25.9667C21.3111 26.5 21.7836 26.928 22.3507 27.2507C22.9169 27.5724 23.5444 27.7333 24.2333 27.7333ZM12.5 11.3333H20.5V8.66667C20.5 7.55556 20.1111 6.61111 19.3333 5.83333C18.5556 5.05556 17.6111 4.66667 16.5 4.66667C15.3889 4.66667 14.4444 5.05556 13.6667 5.83333C12.8889 6.61111 12.5 7.55556 12.5 8.66667V11.3333ZM6.5 28.6667V11.3333H10.5V8.66667C10.5 7 11.0831 5.58311 12.2493 4.416C13.4164 3.24978 14.8333 2.66667 16.5 2.66667C18.1667 2.66667 19.5836 3.24978 20.7507 4.416C21.9169 5.58311 22.5 7 22.5 8.66667V11.3333H26.5V15.4C26.2111 15.3111 25.9 15.2387 25.5667 15.1827C25.2333 15.1276 24.8778 15.1 24.5 15.1V13.3333H8.5V26.6667H16.1333C16.2667 27.0667 16.4058 27.4169 16.5507 27.7173C16.6947 28.0169 16.8778 28.3333 17.1 28.6667H6.5ZM24.2333 29.7333C22.5667 29.7333 21.1502 29.1502 19.984 27.984C18.8169 26.8169 18.2333 25.4 18.2333 23.7333C18.2333 22.0667 18.8169 20.6498 19.984 19.4827C21.1502 18.3164 22.5667 17.7333 24.2333 17.7333C25.9 17.7333 27.3169 18.3164 28.484 19.4827C29.6502 20.6498 30.2333 22.0667 30.2333 23.7333C30.2333 25.4 29.6502 26.8169 28.484 27.984C27.3169 29.1502 25.9 29.7333 24.2333 29.7333Z" fill="#0070F4"/>
</svg>
