<?xml version="1.0" encoding="utf-8"?>
<!-- Generator: Adobe Illustrator 25.2.3, SVG Export Plug-In . SVG Version: 6.00 Build 0)  -->
<svg version="1.1" xmlns="http://www.w3.org/2000/svg" xmlns:xlink="http://www.w3.org/1999/xlink" x="0px" y="0px"
	 viewBox="0 0 960 560" style="enable-background:new 0 0 960 560;" xml:space="preserve">
<style type="text/css">
	.st0{fill:#466675;}
	.st1{fill:#FFFFFF;}
	.st2{fill:#FAC8BF;}
</style>
<g id="Text">
	<g>
		<path d="M223.2,347.9l7.3,0c4.2,0,7,0.2,8.5,0.5c2.1,0.5,3.8,1.6,5.1,3.2c1.3,1.6,2,3.6,2,6c0,2.4-0.6,4.5-1.9,6s-3.1,2.7-5.4,3.2
			c-1.7,0.4-4.8,0.6-9.3,0.6l-2.6,0l0,17h-3.7L223.2,347.9z M226.9,351.4l0,12.4l6.2,0.1c2.5,0,4.3-0.2,5.5-0.7
			c1.2-0.5,2.1-1.2,2.7-2.2c0.7-1,1-2.2,1-3.4c0-1.2-0.3-2.3-1-3.4c-0.7-1-1.5-1.7-2.6-2.2c-1.1-0.4-2.9-0.6-5.3-0.6L226.9,351.4z"
			/>
		<path d="M265.7,356.7c4.2,0,7.6,1.5,10.4,4.5c2.5,2.8,3.7,6,3.7,9.8c0,3.8-1.3,7.1-4,9.9c-2.6,2.8-6,4.2-10.2,4.3
			c-4.2,0-7.6-1.4-10.2-4.2c-2.6-2.8-4-6.1-4-9.9c0-3.8,1.2-7,3.7-9.8C258,358.2,261.5,356.7,265.7,356.7z M265.7,360.1
			c-2.9,0-5.4,1.1-7.5,3.2c-2.1,2.1-3.1,4.7-3.1,7.8c0,2,0.5,3.8,1.4,5.5c1,1.7,2.2,3,3.9,3.9c1.6,0.9,3.4,1.4,5.3,1.4
			c1.9,0,3.7-0.5,5.3-1.4c1.6-0.9,2.9-2.2,3.9-3.9s1.4-3.5,1.4-5.5c0-3-1-5.6-3.1-7.8C271.1,361.2,268.6,360.1,265.7,360.1z"/>
		<path d="M285.8,346.9l3.5,0l0,37.6l-3.5,0L285.8,346.9z"/>
		<path d="M297.7,346.2c0.8,0,1.5,0.3,2,0.8c0.6,0.6,0.8,1.2,0.8,2c0,0.8-0.3,1.5-0.8,2c-0.6,0.6-1.2,0.8-2,0.8
			c-0.8,0-1.4-0.3-2-0.8s-0.8-1.2-0.8-2c0-0.8,0.3-1.5,0.8-2C296.3,346.5,296.9,346.2,297.7,346.2z M296,357.4l3.5,0l0,27.1l-3.5,0
			L296,357.4z"/>
		<path d="M309.7,347.3l3.5,0l0,10.1h5.5l0,3h-5.5l0,24.1l-3.5,0l0-24.1l-4.8,0l0-3l4.8,0L309.7,347.3z"/>
		<path d="M325.2,346.2c0.8,0,1.5,0.3,2,0.8c0.6,0.6,0.8,1.2,0.8,2c0,0.8-0.3,1.5-0.8,2s-1.2,0.8-2,0.8c-0.8,0-1.4-0.3-2-0.8
			s-0.8-1.2-0.8-2c0-0.8,0.3-1.5,0.8-2C323.8,346.5,324.4,346.2,325.2,346.2z M323.5,357.4l3.5,0l0,27.1l-3.5,0L323.5,357.4z"/>
		<path d="M360.5,363l-2.8,1.7c-2.4-3.2-5.7-4.8-9.8-4.8c-3.3,0-6,1.1-8.2,3.2c-2.2,2.1-3.3,4.7-3.3,7.7c0,2,0.5,3.8,1.5,5.6
			c1,1.7,2.4,3.1,4.1,4.1c1.8,1,3.7,1.4,5.9,1.4c4,0,7.2-1.6,9.8-4.8l2.8,1.8c-1.3,2-3,3.5-5.2,4.5c-2.2,1.1-4.7,1.6-7.5,1.6
			c-4.3,0-7.8-1.4-10.7-4.1c-2.8-2.7-4.2-6-4.2-9.9c0-2.6,0.7-5.1,2-7.3c1.3-2.3,3.1-4,5.4-5.3c2.3-1.3,4.9-1.9,7.7-1.9
			c1.8,0,3.5,0.3,5.2,0.8c1.7,0.5,3.1,1.3,4.2,2.1C358.7,360.5,359.7,361.6,360.5,363z"/>
		<path d="M380.9,360.3l-2.2,2.3c-1.9-1.8-3.7-2.7-5.5-2.7c-1.1,0-2.1,0.4-2.9,1.1c-0.8,0.7-1.2,1.6-1.2,2.6c0,0.9,0.3,1.7,1,2.5
			c0.7,0.8,2.1,1.8,4.2,2.9c2.6,1.3,4.4,2.6,5.3,3.9c0.9,1.3,1.4,2.7,1.4,4.3c0,2.2-0.8,4.1-2.3,5.7c-1.6,1.5-3.5,2.3-5.9,2.3
			c-1.6,0-3.1-0.3-4.5-1c-1.4-0.7-2.6-1.6-3.5-2.8l2.2-2.5c1.8,2,3.7,3,5.7,3c1.4,0,2.6-0.4,3.6-1.3c1-0.9,1.5-2,1.5-3.2
			c0-1-0.3-1.9-1-2.7c-0.7-0.8-2.1-1.7-4.4-2.9c-2.4-1.3-4.1-2.5-5-3.7c-0.9-1.2-1.3-2.6-1.3-4.2c0-2.1,0.7-3.8,2.1-5.1
			c1.4-1.4,3.2-2,5.3-2C375.8,356.7,378.3,357.9,380.9,360.3z"/>
		<path d="M429.5,370.9l2.5,2.6c-1.6,1.4-3.1,2.6-4.5,3.7c1,0.9,2.3,2.2,3.9,3.8c1.3,1.3,2.4,2.4,3.3,3.5l-5.1,0l-4.9-5
			c-3.1,2.5-5.5,4.1-7.4,4.8c-1.9,0.7-3.9,1.1-6.1,1.1c-2.8,0-5.1-0.8-6.8-2.4c-1.7-1.6-2.6-3.6-2.6-6.1c0-1.8,0.6-3.7,1.7-5.5
			c1.2-1.8,3.5-4.2,7.1-7c-2-2.4-3.3-4.2-3.9-5.4s-0.9-2.3-0.9-3.3c0-1.8,0.7-3.3,2.1-4.5c1.6-1.4,3.7-2.1,6.1-2.1
			c1.5,0,2.9,0.3,4.2,0.9c1.3,0.6,2.2,1.4,2.9,2.5c0.7,1,1,2.1,1,3.3c0,1.2-0.4,2.5-1.3,3.9c-0.9,1.4-2.6,3.2-5.1,5.3l5.6,5.8
			l3.6,3.7C426.8,373.2,428.4,372,429.5,370.9z M413,367.2c-3.1,2.3-5.2,4.2-6.1,5.6c-1,1.4-1.4,2.7-1.4,3.9c0,1.4,0.6,2.6,1.8,3.7
			s2.6,1.6,4.3,1.6c1.3,0,2.6-0.3,3.8-0.8c2-0.8,4.2-2.3,6.8-4.3l-5.8-6C415.3,369.8,414.2,368.6,413,367.2z M413.4,362.4
			c1.8-1.4,3.1-2.7,4-4.1c0.6-0.9,0.9-1.8,0.9-2.5c0-0.8-0.4-1.6-1.2-2.2c-0.8-0.6-1.9-0.9-3.3-0.9c-1.3,0-2.4,0.3-3.2,0.9
			s-1.2,1.4-1.2,2.2c0,0.7,0.2,1.3,0.5,1.9C410.8,359.1,411.9,360.7,413.4,362.4z"/>
		<path d="M223.3,409.1l21,0l0,3.6l-17.3,0l0,11.5l17.2,0l0,3.6l-17.2,0l0,14.4l17.2,0l0,3.6l-20.9,0L223.3,409.1z"/>
		<path d="M277.1,408.2l0,37.6h-3.4l0-4.7c-1.5,1.8-3.1,3.1-4.9,4c-1.8,0.9-3.8,1.3-6,1.3c-3.8,0-7.1-1.4-9.8-4.2
			c-2.7-2.8-4.1-6.2-4.1-10.2c0-3.9,1.4-7.2,4.1-10c2.7-2.8,6-4.2,9.9-4.2c2.2,0,4.2,0.5,6,1.4c1.8,0.9,3.4,2.4,4.7,4.3l0-15.5
			H277.1z M263.1,421.3c-1.9,0-3.7,0.5-5.4,1.4c-1.6,1-2.9,2.3-3.9,4c-1,1.7-1.5,3.6-1.5,5.5c0,1.9,0.5,3.7,1.5,5.5
			c1,1.7,2.3,3.1,3.9,4.1c1.7,1,3.4,1.5,5.3,1.5c1.9,0,3.7-0.5,5.4-1.4c1.7-1,3-2.3,3.9-3.9c0.9-1.6,1.4-3.5,1.4-5.6
			c0-3.1-1-5.8-3.1-7.9S266.2,421.3,263.1,421.3z"/>
		<path d="M284.5,418.6l3.5,0l0,12.7c0,3.1,0.2,5.2,0.5,6.4c0.5,1.7,1.5,3,2.9,3.9c1.4,1,3.1,1.4,5,1.4s3.6-0.5,5-1.4
			c1.4-0.9,2.3-2.2,2.8-3.7c0.3-1,0.5-3.3,0.5-6.7l0-12.7l3.6,0l0,13.3c0,3.7-0.4,6.6-1.3,8.4c-0.9,1.9-2.2,3.4-3.9,4.4
			c-1.8,1.1-3.9,1.6-6.6,1.6s-4.8-0.5-6.6-1.6c-1.8-1.1-3.1-2.6-4-4.5c-0.9-1.9-1.3-4.8-1.3-8.7L284.5,418.6z"/>
		<path d="M342.3,424.3l-2.8,1.7c-2.4-3.2-5.7-4.8-9.8-4.8c-3.3,0-6,1.1-8.2,3.2c-2.2,2.1-3.3,4.7-3.3,7.7c0,2,0.5,3.8,1.5,5.6
			c1,1.7,2.4,3.1,4.1,4.1c1.8,1,3.7,1.4,5.9,1.4c4,0,7.2-1.6,9.8-4.8l2.8,1.8c-1.3,2-3,3.5-5.2,4.5c-2.2,1.1-4.7,1.6-7.5,1.6
			c-4.3,0-7.8-1.4-10.7-4.1c-2.8-2.7-4.2-6-4.2-9.9c0-2.6,0.7-5.1,2-7.3s3.1-4,5.4-5.3c2.3-1.3,4.9-1.9,7.7-1.9
			c1.8,0,3.5,0.3,5.2,0.8c1.7,0.5,3.1,1.3,4.2,2.1C340.5,421.8,341.5,422.9,342.3,424.3z"/>
		<path d="M376,418.6l0,27.1h-3.4l0-4.7c-1.5,1.8-3.1,3.1-4.9,4c-1.8,0.9-3.8,1.3-6,1.3c-3.8,0-7.1-1.4-9.8-4.2
			c-2.7-2.8-4.1-6.2-4.1-10.2c0-3.9,1.4-7.2,4.1-10c2.7-2.8,6-4.2,9.9-4.2c2.2,0,4.2,0.5,6,1.4s3.4,2.4,4.7,4.3l0-5H376z
			 M362.1,421.3c-1.9,0-3.7,0.5-5.4,1.4c-1.6,1-2.9,2.3-3.9,4c-1,1.7-1.5,3.6-1.5,5.5c0,1.9,0.5,3.7,1.5,5.5c1,1.7,2.3,3.1,3.9,4.1
			c1.7,1,3.4,1.5,5.3,1.5c1.9,0,3.7-0.5,5.4-1.4c1.7-1,3-2.3,3.9-3.9s1.4-3.5,1.4-5.6c0-3.1-1-5.8-3.1-7.9
			C367.7,422.3,365.1,421.3,362.1,421.3z"/>
		<path d="M386.9,408.6h3.5l0,10.1l5.5,0l0,3l-5.5,0l0,24.1h-3.5l0-24.1l-4.8,0l0-3l4.8,0L386.9,408.6z"/>
		<path d="M402.4,407.5c0.8,0,1.5,0.3,2,0.8c0.6,0.6,0.8,1.2,0.8,2c0,0.8-0.3,1.5-0.8,2s-1.2,0.8-2,0.8c-0.8,0-1.4-0.3-2-0.8
			c-0.6-0.6-0.8-1.2-0.8-2c0-0.8,0.3-1.5,0.8-2C401,407.7,401.6,407.5,402.4,407.5z M400.7,418.6l3.5,0l0,27.1l-3.5,0L400.7,418.6z"
			/>
		<path d="M424.2,417.9c4.2,0,7.6,1.5,10.4,4.5c2.5,2.8,3.7,6,3.7,9.8c0,3.8-1.3,7.1-4,9.9c-2.6,2.8-6,4.2-10.2,4.2
			c-4.2,0-7.6-1.4-10.2-4.2c-2.6-2.8-4-6.1-4-9.9c0-3.8,1.2-7,3.7-9.8C416.6,419.4,420,417.9,424.2,417.9z M424.2,421.3
			c-2.9,0-5.4,1.1-7.5,3.2c-2.1,2.1-3.1,4.7-3.1,7.8c0,2,0.5,3.8,1.4,5.5c1,1.7,2.2,3,3.9,3.9c1.6,0.9,3.4,1.4,5.3,1.4
			c1.9,0,3.7-0.5,5.3-1.4c1.6-0.9,2.9-2.2,3.8-3.9s1.4-3.5,1.4-5.5c0-3-1-5.6-3.1-7.8C429.6,422.4,427.1,421.3,424.2,421.3z"/>
		<path d="M444.8,418.6h3.5l0,4.9c1.4-1.9,2.9-3.3,4.6-4.2s3.5-1.4,5.5-1.4c2,0,3.8,0.5,5.4,1.5c1.6,1,2.7,2.4,3.5,4.2
			c0.7,1.7,1.1,4.5,1.1,8.1l0,14H465l0-12.9c0-3.1-0.1-5.2-0.4-6.3c-0.4-1.8-1.2-3.1-2.3-4c-1.1-0.9-2.6-1.4-4.5-1.4
			c-2.1,0-4,0.7-5.7,2.1s-2.8,3.1-3.3,5.2c-0.3,1.3-0.5,3.8-0.5,7.4l0,9.9h-3.5L444.8,418.6z"/>
	</g>
</g>
<g id="blau">
	<g>
		<path class="st0" d="M118.4,309.3c53.1,29.8,126.1,0.3,163.3-65.9l-42.3-18.2C203.5,289.1,149.4,326.7,118.4,309.3z"/>
		<path class="st0" d="M566.3,206c1.4,68.3-87.4,125.6-198.4,127.9c-111,2.3-202.1-51.3-203.5-119.6
			C162.9,146,251.8,88.7,362.8,86.4C473.8,84.1,564.9,137.7,566.3,206z"/>
	</g>
	<g>
		<path class="st1" d="M253.6,262.8L251.4,157l45.6-0.9c25.9-0.5,39,9.6,39.4,30.3c0.4,20.9-13.7,31.7-42.5,32.3l-10.6,0.2l0.9,43.3
			L253.6,262.8z M283.1,209.1l6.9-0.1c11.2-0.2,16.6-7.7,16.3-22.5c-0.3-13.8-6-20.6-17.2-20.4l-6.9,0.1L283.1,209.1z"/>
		<path class="st1" d="M380.5,180c25.8-0.5,39,12.8,39.6,40.1c0.6,27.3-12.1,41.2-37.9,41.7c-25.9,0.5-39.1-12.8-39.7-40.1
			C342,194.5,354.6,180.6,380.5,180z M380.6,186.9c-6.2,0.1-9.1,11.5-8.7,34.2s3.8,33.9,10.1,33.8c6.3-0.1,9.2-11.5,8.7-34.2
			S386.9,186.8,380.6,186.9z"/>
		<path class="st1" d="M458.6,151.2l2.2,107.3l-28.3,0.6l-2.2-105.7C438.2,153.2,447.6,152.5,458.6,151.2z"/>
	</g>
</g>
<g id="rosa">
	<g>
		<path class="st2" d="M881.9,405.8c-50.8,31.4-123.6,5.4-162.7-58l40.7-19.5C797.7,389.5,852.3,424.2,881.9,405.8z"/>
		<path class="st2" d="M438.7,322.7c1.4,67,90.8,119.6,199.7,117.3c108.9-2.2,196.1-58.4,194.7-125.5
			c-1.4-67.1-90.8-119.6-199.7-117.3C524.5,199.5,437.3,255.6,438.7,322.7z"/>
	</g>
	<g>
		<path class="st1" d="M590.8,260.6l-0.2,10.6l-37.9-0.8l-0.7,32l31.8,0.7l-0.2,10.6l-31.8-0.7L551,355l44.3,0.9l-0.2,10.6l-75-1.5
			l2.2-105.7L590.8,260.6z"/>
		<path class="st1" d="M675.6,260.7l-2.2,107.4l-28.3-0.6l0.1-6.7c-4.9,5.6-11.3,8.3-19.2,8.1c-17.6-0.4-26.1-14-25.5-41
			c0.6-27.7,10.2-41.4,28.7-41c7.3,0.2,13.1,3.5,17.3,10l0.7-35.2C655.8,261.9,665.2,261.6,675.6,260.7z M638.1,298.5
			c-4.8-0.1-7.2,4.2-7.4,12.9l-0.9,16.6l0,15.1c-0.2,9.7,2.4,14.5,7.8,14.7c5.2,0.1,7.9-4.6,8.1-14.1l0.8-19l-0.4-13
			C645.5,302.9,642.8,298.6,638.1,298.5z"/>
		<path class="st1" d="M764.6,289.8l-1.6,80.1l-28.3-0.6l0.3-12.5c-6.7,9.2-15.2,13.6-25.4,13.4c-13.8-0.3-20.5-7.1-20.3-20.6
			l1.2-59.4c9.5-0.2,18.9-0.7,28.3-1.4l-1.3,60.7c-0.1,5.3,1.4,7.9,4.6,8c8.5,0.2,12.9-8.8,13.3-27l0.8-39.3
			C745.8,291.1,755.2,290.6,764.6,289.8z"/>
	</g>
</g>
</svg>
