<svg xmlns="http://www.w3.org/2000/svg" viewBox="0 0 150 60">
<path fill="#03BFD7" d="M71.914 30.698v-1.44h-1.585v9.384h1.705v-6.46s.544-1.586 2.224-1.586c.813 0 1.305.298 1.305.298l.33-1.637s-.587-.245-1.36-.245c-1.94 0-2.62 1.686-2.62 1.686zm-5.892 5.018S65.13 37.3 63.26 37.3c-1.911 0-3.11-1.503-3.11-3.352s1.199-3.352 3.11-3.352c1.848 0 2.76 1.585 2.76 1.585v3.535zm.142-5.099s-.913-1.605-3.168-1.605c-2.538 0-4.55 2.173-4.55 4.936 0 2.764 2.012 4.937 4.55 4.937 1.727 0 2.702-.994 3.026-1.423v1.3c0 2.112-1.238 3.211-3.23 3.211-1.93 0-3.067-1.482-3.067-1.482L58.69 41.77s1.523 1.788 4.103 1.788c2.72 0 4.937-1.625 4.937-4.875v-9.425h-1.566v1.36zm54.89 5.14s-.75 1.543-2.335 1.543c-1.26 0-2.253-.69-2.253-2.294v-5.749h-1.71v6.033c0 2.316 1.667 3.595 3.537 3.595 2.03 0 2.885-1.687 2.885-1.687v1.444h1.583v-9.385h-1.706v6.5zm-37.831.203s-1.015 1.423-2.682 1.423c-1.057 0-2.154-.489-2.154-1.709 0-.974.916-1.705 2.379-1.705 1.52 0 2.457.671 2.457.671v1.32zm-2.377-6.948c-2.253 0-3.513.956-3.513.956l.71 1.422s1.08-.794 2.803-.794c.752 0 2.377.265 2.377 2.214v.51s-1.097-.773-2.825-.773c-2.111 0-3.716 1.3-3.716 3.127 0 2.033 1.809 3.211 3.493 3.211 2.134 0 3.19-1.604 3.19-1.604v1.361h1.565v-6.176c0-1.747-1.321-3.454-4.084-3.454zm-31.358 4.124c.124-.976.956-2.54 2.988-2.54 1.889 0 2.844 1.484 2.906 2.54h-5.894zm2.988-4.124c-2.825 0-4.693 2.194-4.693 4.936 0 2.783 2.052 4.937 4.895 4.937 2.48 0 3.903-1.85 3.903-1.85l-1.077-1.116s-.976 1.381-2.826 1.381c-1.767 0-3.128-1.319-3.23-2.742h7.577c.02-.223.02-.365.02-.549 0-3.026-1.948-4.997-4.57-4.997zm52.705 9.63h1.704v-5.648h5.743V31.37h-5.743v-5.322H113v-1.626h-7.82v14.221zm24.926-9.63c-2.031 0-2.883 1.566-2.883 1.566v-1.32h-1.586v9.384h1.706v-6.46s.812-1.586 2.335-1.586c1.262 0 2.257.691 2.257 2.296v5.75h1.706v-6.034c0-2.315-1.666-3.596-3.535-3.596zm-35.651 6.662s-.893 1.626-2.762 1.626c-1.91 0-3.107-1.503-3.107-3.352s1.238-3.352 3.107-3.352c1.869 0 2.762 1.625 2.762 1.625v3.453zm0-5.259s-.955-1.403-3.027-1.403c-2.538 0-4.55 2.173-4.55 4.936 0 2.764 2.012 4.937 4.55 4.937 2.255 0 3.17-1.604 3.17-1.604v1.361h1.564V24.08h-1.707v6.336zm48.837 5.26S142.4 37.3 140.53 37.3c-1.91 0-3.11-1.503-3.11-3.352s1.243-3.352 3.11-3.352c1.87 0 2.763 1.625 2.763 1.625v3.453zm0-11.596v6.336s-.954-1.403-3.026-1.403c-2.54 0-4.551 2.173-4.551 4.936 0 2.764 2.01 4.937 4.55 4.937 2.254 0 3.169-1.604 3.169-1.604v1.361H145V24.08h-1.707zm-107.76 1.014a1.17 1.17 0 0 0-1.156 1.156c0 .632.528 1.157 1.157 1.157.63 0 1.158-.525 1.158-1.157 0-.629-.527-1.156-1.158-1.156zm-8.005 9.75l-4.102-10.422h-1.87l5.933 14.626 5.929-14.626h-1.766l-4.124 10.422zm7.154 3.8h1.707v-9.386h-1.707v9.385zm8.29-5.465c-1.69-.38-2.277-.712-2.277-1.422 0-.67.592-1.2 1.788-1.2 1.423 0 2.434.935 2.434.935l1.069-1.204s-1.286-1.275-3.503-1.275c-2.09 0-3.453 1.342-3.453 2.703 0 1.766 1.423 2.56 3.435 2.965 1.44.285 2.132.691 2.132 1.503 0 .678-.684 1.16-1.976 1.16-1.833 0-2.9-1.525-2.9-1.525l-1.177 1.097s1.327 1.97 4.077 1.97c1.974 0 3.662-.994 3.662-2.743 0-1.909-1.527-2.564-3.311-2.964zm-.756 25.554a3.057 3.057 0 0 0-3.06 3.06 3.056 3.056 0 0 0 3.06 3.058 3.054 3.054 0 0 0 3.059-3.058 3.056 3.056 0 0 0-3.06-3.06zM22.639 53.84a3.056 3.056 0 0 0-3.06 3.06 3.056 3.056 0 0 0 3.06 3.057 3.054 3.054 0 0 0 3.058-3.058 3.054 3.054 0 0 0-3.058-3.059zM3.059 29.366A3.057 3.057 0 0 0 0 32.426a3.057 3.057 0 0 0 3.06 3.058 3.056 3.056 0 0 0 3.06-3.059 3.056 3.056 0 0 0-3.06-3.059zM50.17 3.058A3.055 3.055 0 0 0 47.11 0a3.056 3.056 0 0 0-3.058 3.058 3.057 3.057 0 0 0 3.059 3.06 3.057 3.057 0 0 0 3.06-3.06z"/>
</svg>
