<svg width="93" height="28" viewBox="0 0 93 28" fill="none" xmlns="http://www.w3.org/2000/svg">
<path d="M20.9576 9.45947V19.8988H20.2275V9.45947H20.9576ZM25.8029 13.0201L22.0596 16.2821L26.3841 19.8941H25.3844L21.0599 16.2868L24.845 13.0201H25.8029Z" fill="#565252"/>
<path d="M29.8158 12.8896C30.8063 12.8896 31.634 13.2303 32.2989 13.9116C32.9592 14.593 33.294 15.447 33.294 16.469C33.294 17.4863 32.9639 18.331 32.2989 19.0123C31.634 19.6936 30.8109 20.0343 29.8158 20.0343C28.8254 20.0343 27.993 19.6936 27.3234 19.0123C26.6538 18.331 26.3237 17.4863 26.3237 16.469C26.3237 15.447 26.6585 14.5976 27.3234 13.9116C27.993 13.2303 28.8254 12.8896 29.8158 12.8896ZM29.8158 19.311C30.5831 19.311 31.2294 19.0403 31.7456 18.499C32.2617 17.9576 32.5221 17.281 32.5221 16.4643C32.5221 15.6523 32.2617 14.971 31.7456 14.425C31.2294 13.879 30.5877 13.6036 29.8205 13.6036C29.0439 13.6036 28.3976 13.8743 27.8814 14.4203C27.3606 14.9616 27.1049 15.6476 27.1049 16.469C27.1049 17.2856 27.3653 17.9623 27.8814 18.5036C28.3976 19.045 29.0439 19.311 29.8158 19.311Z" fill="#565252"/>
<path d="M35.6237 9.45947V14.2195H35.6515C36.2235 13.3328 36.9721 12.8895 37.9068 12.8895C38.6833 12.8895 39.2972 13.1368 39.7622 13.6361C40.2272 14.1355 40.455 14.8168 40.455 15.6895V19.8941H39.725V15.9788C39.725 14.3968 39.1065 13.6035 37.865 13.6035C36.9768 13.6035 36.2282 14.0935 35.6237 15.0735V19.8941H34.8936V9.45947H35.6237Z" fill="#565252"/>
<path d="M45.5561 12.8896C46.5465 12.8896 47.3742 13.2303 48.0392 13.9116C48.6995 14.593 49.0343 15.447 49.0343 16.469C49.0343 17.4863 48.7041 18.331 48.0392 19.0123C47.3742 19.6936 46.5512 20.0343 45.5561 20.0343C44.561 20.0343 43.7333 19.6936 43.0637 19.0123C42.3941 18.331 42.0639 17.4863 42.0639 16.469C42.0639 15.447 42.3987 14.5976 43.0637 13.9116C43.7333 13.2303 44.561 12.8896 45.5561 12.8896ZM45.5561 19.311C46.3233 19.311 46.9697 19.0403 47.4858 18.499C48.002 17.9576 48.2624 17.281 48.2624 16.4643C48.2624 15.6523 48.002 14.971 47.4858 14.425C46.9697 13.879 46.328 13.6036 45.5607 13.6036C44.7842 13.6036 44.1378 13.8743 43.6217 14.4203C43.1009 14.9616 42.8451 15.6476 42.8451 16.469C42.8451 17.2856 43.1055 17.9623 43.6217 18.5036C44.1378 19.045 44.7795 19.311 45.5561 19.311Z" fill="#565252"/>
<path d="M55.8976 13.02L52.9495 20.0294H52.5124L49.383 13.02H50.127L52.7077 18.8114L55.1862 13.02H55.8976Z" fill="#565252"/>
<path d="M59.7897 12.8896C60.7801 12.8896 61.6078 13.2303 62.2728 13.9116C62.9331 14.593 63.2679 15.447 63.2679 16.469C63.2679 17.4863 62.9377 18.331 62.2728 19.0123C61.6078 19.6936 60.7848 20.0343 59.7897 20.0343C58.7946 20.0343 57.9669 19.6936 57.2973 19.0123C56.6277 18.331 56.2975 17.4863 56.2975 16.469C56.2975 15.447 56.6323 14.5976 57.2973 13.9116C57.9669 13.2303 58.7946 12.8896 59.7897 12.8896ZM59.7897 19.311C60.5569 19.311 61.2033 19.0403 61.7194 18.499C62.2356 17.9576 62.496 17.281 62.496 16.4643C62.496 15.6523 62.2356 14.971 61.7194 14.425C61.1986 13.879 60.5616 13.6036 59.7943 13.6036C59.0178 13.6036 58.3714 13.8743 57.8553 14.4203C57.3345 14.9616 57.0787 15.6476 57.0787 16.469C57.0787 17.2856 57.3391 17.9623 57.8553 18.5036C58.3668 19.045 59.0131 19.311 59.7897 19.311Z" fill="#565252"/>
<path d="M65.7231 9.45947V19.8988H64.9837V9.45947H65.7231Z" fill="#565252"/>
<path d="M68.5875 9.45947V10.7148H67.8482V9.45947H68.5875ZM68.5875 13.0201V19.8941H67.8482V13.0201H68.5875Z" fill="#565252"/>
<path d="M71.9401 10.7427V13.02H73.8606V13.6173H71.9401V17.7053C71.9401 18.3633 71.9913 18.7927 72.0982 19.0027C72.2052 19.2127 72.4935 19.3107 72.9585 19.3107C73.3165 19.3107 73.735 19.1987 74.2093 18.9747V19.6747C73.7257 19.908 73.2561 20.0247 72.7957 20.0247C72.3447 20.0247 71.968 19.894 71.6658 19.6373C71.3635 19.376 71.2101 19.0213 71.2101 18.5593V13.6127H69.364V13.02H71.2101V11.3867L71.7076 10.7427H71.9401Z" fill="#565252"/>
<path d="M76.1019 18.4102V19.8988H75.1115V18.4102H76.1019Z" fill="#565252"/>
<path d="M83.7325 16.2028H78.3339C78.3199 16.3241 78.3106 16.4408 78.3106 16.5621C78.3106 17.3274 78.585 17.9808 79.129 18.5128C79.6731 19.0448 80.3194 19.3108 81.0634 19.3108C81.933 19.3108 82.7793 18.9701 83.6116 18.2888V19.1194C82.8258 19.7261 81.9469 20.0294 80.9751 20.0294C79.9893 20.0294 79.1709 19.6841 78.5245 18.9981C77.8782 18.3121 77.5573 17.4348 77.5573 16.3754C77.5573 15.3674 77.8549 14.5368 78.4501 13.8741C79.0453 13.2161 79.794 12.8848 80.7007 12.8848C81.5517 12.8848 82.2678 13.1834 82.8537 13.7761C83.4396 14.3734 83.7325 15.1854 83.7325 16.2028ZM78.4315 15.6148H82.8676C82.6072 14.2754 81.8865 13.6034 80.7007 13.6034C80.1381 13.6034 79.6545 13.7808 79.2453 14.1308C78.8361 14.4808 78.5664 14.9754 78.4315 15.6148Z" fill="#565252"/>
<path d="M90.0287 19.894V18.76H90.0008C89.6846 19.2174 89.3591 19.544 89.0196 19.74C88.6848 19.936 88.257 20.0294 87.7409 20.0294C87.0062 20.0294 86.397 19.7914 85.9181 19.3107C85.4345 18.8347 85.1973 18.1534 85.1973 17.2807V13.02H85.9274V17.2667C85.9274 17.906 86.0994 18.4054 86.4482 18.7694C86.7969 19.1334 87.248 19.3154 87.8013 19.3154C88.2756 19.3154 88.6848 19.208 89.0196 18.9887C89.3544 18.7694 89.6892 18.3914 90.0287 17.8547V13.02H90.7587V19.894H90.0287Z" fill="#565252"/>
<path d="M8.40719 23.0765H9.70919C9.70919 23.0765 9.35579 19.4178 9.42554 19.1798C9.49529 18.9418 12.6247 13.8085 12.7875 13.8085L13.192 14.1212C13.192 14.1212 13.3641 12.9825 13.4292 12.8098L12.1969 13.1878L12.4341 13.4958C12.4341 13.4958 10.1137 16.6552 9.40229 18.0598L9.25814 15.7545C9.25814 15.7545 11.1042 12.3338 11.3878 10.5512C11.3878 10.5512 11.5552 10.5978 11.7552 10.6352C11.7552 10.6352 11.4948 9.55251 11.4111 9.30518C11.4111 9.30518 10.6996 10.1498 10.4857 10.2198L10.9135 10.4578L9.28139 14.3545L9.18839 12.9265L9.51854 12.9032C9.51854 12.9032 8.99774 11.8812 8.99774 11.8112C8.99774 11.8112 8.29559 12.7818 8.15144 12.8285L8.46299 12.8705L8.42114 13.4865C8.42114 13.4865 7.16099 12.4038 7.16099 12.2732C7.16099 12.2732 7.26794 12.1285 7.32839 12.1192L6.80759 11.9885C6.80759 11.9885 6.84479 12.4412 6.81224 12.5252L7.00754 12.3805C7.00754 12.3805 8.14214 13.7945 8.26304 13.8178L8.19329 17.5605L5.98919 14.3032C5.98919 14.3032 6.10079 14.2192 6.19379 14.1212C6.19379 14.1212 5.47304 13.7432 5.34284 13.6872C5.34284 13.6872 5.30564 14.3452 5.28239 14.6485C5.28239 14.6485 5.58929 14.5365 5.64044 14.5038C5.64044 14.5038 6.73784 16.4638 6.76109 16.5478C6.76109 16.5478 5.33819 16.4638 5.35214 16.3565C5.36609 16.2352 5.42189 16.1418 5.43584 16.0672C5.43584 16.0672 4.83599 16.1418 4.70114 16.1652C4.70114 16.1652 5.01734 16.5852 5.11499 16.7718C5.11499 16.7718 5.23124 16.5758 5.27774 16.5338C5.27774 16.5338 6.00314 16.9678 7.10519 16.9538L8.20724 18.7832L8.40719 23.0765Z" fill="#565252"/>
<path d="M11.0391 16.9961C11.0391 16.9961 11.2623 16.6321 11.2902 16.5854C11.3785 16.6741 11.4715 16.7581 11.5692 16.8328C11.6482 16.8981 11.7319 16.9588 11.8203 17.0101C11.89 17.0521 12.0807 17.1221 12.0946 17.1174C12.1318 17.1034 12.2667 16.9588 12.3039 16.9261C12.3783 16.8608 12.4527 16.8001 12.5364 16.7441C12.6945 16.6414 12.8851 16.5761 13.0758 16.6134C13.4803 16.6881 13.8663 16.9961 13.9221 17.4208C13.9639 17.7334 13.8895 18.0414 13.8384 18.3448C13.8058 18.5361 13.7826 18.7321 13.7733 18.9235C13.7686 19.0215 13.764 19.1194 13.764 19.2174C13.764 19.2501 13.764 19.3434 13.764 19.3434C13.764 19.3434 13.671 19.2968 13.6431 19.2874C13.3594 19.2081 13.0711 19.1614 12.7828 19.1381C12.6015 19.1241 12.4201 19.1241 12.2388 19.1008C11.9179 19.0588 11.5413 18.9048 11.3692 18.6108C11.2716 18.4428 11.3041 18.2468 11.3599 18.0694C11.4064 17.9201 11.4715 17.7801 11.5552 17.6494C11.6343 17.5234 11.7412 17.3834 11.89 17.3274C11.8761 17.3321 11.4297 16.9914 11.0391 16.9961Z" fill="#565252"/>
<path d="M14.0383 16.0577C14.0383 16.0577 14.0755 15.9504 14.0802 15.9364C14.1081 15.955 14.136 15.969 14.1685 15.983C14.1918 15.997 14.2197 16.0064 14.2429 16.0157C14.2662 16.025 14.3173 16.0297 14.322 16.0297C14.3313 16.025 14.3592 15.9784 14.3638 15.969C14.3778 15.9457 14.3964 15.927 14.415 15.9084C14.4522 15.871 14.494 15.843 14.5452 15.843C14.6521 15.8384 14.773 15.8944 14.8102 16.0017C14.8381 16.081 14.8381 16.165 14.8428 16.2444C14.8428 16.2957 14.8521 16.347 14.8567 16.3984C14.8614 16.4217 14.866 16.4497 14.8707 16.473C14.8707 16.4824 14.8753 16.5057 14.8753 16.5057C14.8753 16.5057 14.8474 16.501 14.8428 16.4964C14.7637 16.4917 14.6893 16.4964 14.6103 16.5057C14.5638 16.515 14.5173 16.5244 14.4661 16.529C14.3824 16.5384 14.2755 16.5197 14.215 16.4497C14.1778 16.4124 14.1778 16.361 14.1825 16.3097C14.1871 16.2677 14.1964 16.2304 14.2104 16.1884C14.2243 16.151 14.2429 16.109 14.2801 16.0857C14.2755 16.095 14.1406 16.0344 14.0383 16.0577Z" fill="#565252"/>
<path d="M15.4519 13.7013C15.4519 13.7013 15.4659 13.5893 15.4659 13.5753C15.4984 13.5846 15.5263 13.5986 15.5589 13.6033C15.5868 13.6079 15.61 13.6173 15.6379 13.6173C15.6612 13.6219 15.7123 13.6173 15.717 13.6126C15.7263 13.6033 15.7402 13.5566 15.7449 13.5426C15.7542 13.5193 15.7681 13.4959 15.7821 13.4726C15.81 13.4306 15.8472 13.3933 15.8983 13.3793C16.0053 13.3513 16.1308 13.3839 16.1913 13.4819C16.2331 13.5519 16.2517 13.6359 16.2703 13.7153C16.2843 13.7666 16.2982 13.8133 16.3168 13.8646C16.3261 13.8879 16.3354 13.9113 16.3447 13.9346C16.3494 13.9439 16.3587 13.9626 16.3587 13.9626C16.3587 13.9626 16.3308 13.9626 16.3215 13.9626C16.2471 13.9766 16.168 13.9953 16.0983 14.0233C16.0518 14.0419 16.0099 14.0606 15.9634 14.0746C15.8797 14.0979 15.7728 14.1026 15.6984 14.0513C15.6565 14.0186 15.6426 13.9719 15.6379 13.9206C15.6333 13.8786 15.6333 13.8366 15.6379 13.7993C15.6426 13.7619 15.6519 13.7153 15.6844 13.6873C15.6891 13.6919 15.5449 13.6593 15.4519 13.7013Z" fill="#565252"/>
<path d="M11.0205 15.1013C11.0205 15.1013 10.974 15.204 10.9693 15.218C10.9414 15.1993 10.9182 15.1807 10.8856 15.162C10.8624 15.148 10.8391 15.134 10.8159 15.1247C10.7973 15.1153 10.7415 15.106 10.7415 15.106C10.7322 15.1107 10.6996 15.1527 10.695 15.162C10.6764 15.1807 10.6578 15.1993 10.6392 15.218C10.602 15.2507 10.5508 15.274 10.4997 15.2693C10.3927 15.2647 10.2811 15.1947 10.2486 15.0827C10.2253 15.0033 10.2346 14.9193 10.2393 14.8353C10.2439 14.784 10.2393 14.7327 10.2393 14.6813C10.2393 14.6533 10.2346 14.63 10.23 14.602C10.23 14.5927 10.2253 14.5693 10.2253 14.5693C10.2253 14.5693 10.2532 14.5787 10.2579 14.5787C10.3369 14.588 10.4113 14.5927 10.4904 14.588C10.5369 14.5833 10.588 14.5787 10.6345 14.5787C10.7182 14.5787 10.8252 14.6067 10.881 14.6813C10.9135 14.7233 10.9089 14.7747 10.8996 14.826C10.8903 14.868 10.881 14.9053 10.8624 14.9427C10.8438 14.98 10.8205 15.0173 10.7833 15.036C10.788 15.0407 10.9182 15.1153 11.0205 15.1013Z" fill="#565252"/>
<path d="M13.6105 14.3081C13.6105 14.3081 13.5687 14.2008 13.564 14.1868C13.5966 14.1821 13.6291 14.1774 13.6617 14.1681C13.6896 14.1634 13.7128 14.1541 13.7407 14.1448C13.7593 14.1354 13.8058 14.1074 13.8058 14.1028C13.8105 14.0934 13.8012 14.0421 13.8012 14.0281C13.8012 14.0001 13.7965 13.9768 13.8012 13.9488C13.8058 13.8974 13.8244 13.8461 13.8616 13.8134C13.9407 13.7388 14.0709 13.7061 14.1685 13.7621C14.2429 13.8041 14.2941 13.8694 14.3499 13.9301C14.3824 13.9674 14.4243 14.0048 14.4615 14.0374C14.4801 14.0561 14.5033 14.0701 14.5219 14.0841C14.5312 14.0888 14.5498 14.1028 14.5498 14.1028C14.5498 14.1028 14.5266 14.1168 14.5173 14.1214C14.4568 14.1681 14.3964 14.2194 14.3452 14.2801C14.3127 14.3174 14.2848 14.3548 14.2476 14.3874C14.1871 14.4481 14.0941 14.5041 14.0058 14.4901C13.9546 14.4854 13.9174 14.4434 13.8895 14.4061C13.8663 14.3734 13.8477 14.3361 13.8337 14.2988C13.8198 14.2614 13.8058 14.2148 13.8198 14.1774C13.8151 14.1868 13.671 14.2241 13.6105 14.3081Z" fill="#565252"/>
<path d="M14.5312 10.2619C14.5312 10.2619 14.4196 10.2573 14.4057 10.2526C14.415 10.2199 14.4243 10.1873 14.4289 10.1546C14.4336 10.1266 14.4382 10.0986 14.4382 10.0753C14.4382 10.0519 14.4289 10.0006 14.4289 9.99594C14.4196 9.98661 14.3685 9.97728 14.3592 9.97261C14.3359 9.96328 14.3127 9.95395 14.2894 9.93995C14.2476 9.91661 14.2057 9.87928 14.1918 9.82795C14.1592 9.72528 14.1825 9.59461 14.2755 9.52928C14.3452 9.48261 14.4243 9.45928 14.5033 9.43128C14.5545 9.41728 14.601 9.39395 14.6475 9.37528C14.6707 9.36595 14.694 9.35195 14.7172 9.34261C14.7265 9.33795 14.7451 9.32861 14.7451 9.32861C14.7451 9.32861 14.7451 9.35661 14.7498 9.36595C14.7684 9.44061 14.7916 9.51528 14.8242 9.58528C14.8428 9.62728 14.866 9.67395 14.8846 9.71595C14.9172 9.79528 14.9265 9.90261 14.88 9.98195C14.8521 10.0239 14.8056 10.0426 14.7544 10.0519C14.7126 10.0613 14.6707 10.0613 14.6335 10.0613C14.5917 10.0566 14.5498 10.0519 14.5173 10.0239C14.5033 10.0239 14.4801 10.1733 14.5312 10.2619Z" fill="#565252"/>
<path d="M7.97474 8.57238C7.97474 8.57238 7.91429 8.67038 7.90499 8.67972C7.88174 8.65638 7.85849 8.63305 7.83059 8.61438C7.80734 8.59572 7.78874 8.58172 7.76549 8.56772C7.74689 8.55372 7.69574 8.53972 7.69574 8.53972C7.68644 8.54438 7.64924 8.58172 7.63994 8.59105C7.62134 8.60972 7.59809 8.62372 7.57949 8.63772C7.53764 8.66572 7.48649 8.67972 7.43534 8.67038C7.32839 8.64705 7.22609 8.56772 7.21214 8.45572C7.20284 8.37172 7.22144 8.29238 7.23539 8.20838C7.24469 8.15705 7.24934 8.10572 7.25399 8.05438C7.25399 8.02638 7.25864 8.00305 7.25864 7.97505C7.25864 7.96572 7.25864 7.94238 7.25864 7.94238C7.25864 7.94238 7.28189 7.95638 7.29119 7.95638C7.36559 7.97972 7.43999 7.99372 7.51904 7.99838C7.56554 8.00305 7.61669 8.00305 7.66319 8.01238C7.74689 8.02638 7.84919 8.06838 7.89104 8.14305C7.91429 8.18972 7.90964 8.24105 7.89104 8.28772C7.87709 8.32505 7.86314 8.36238 7.83989 8.39972C7.81664 8.43238 7.78874 8.46972 7.75154 8.48372C7.75619 8.48372 7.87244 8.57705 7.97474 8.57238Z" fill="#565252"/>
<path d="M3.58049 9.3424C3.58049 9.3424 3.52004 9.4404 3.51074 9.44974C3.48749 9.4264 3.46424 9.40307 3.43634 9.3844C3.41309 9.36574 3.39449 9.35174 3.37124 9.33774C3.35264 9.32374 3.30149 9.30974 3.30149 9.30974C3.29219 9.3144 3.25499 9.35174 3.24569 9.36107C3.22709 9.37974 3.20384 9.39374 3.18524 9.40774C3.14339 9.43574 3.09224 9.44974 3.04109 9.4404C2.93414 9.41707 2.83184 9.33774 2.81789 9.22574C2.80859 9.14174 2.82719 9.0624 2.84114 8.9784C2.85044 8.92707 2.85509 8.87574 2.85974 8.8244C2.85974 8.7964 2.86439 8.77307 2.86439 8.74507C2.86439 8.73574 2.86439 8.7124 2.86439 8.7124C2.86439 8.7124 2.88764 8.7264 2.89694 8.7264C2.97134 8.74974 3.04574 8.76374 3.12479 8.7684C3.17129 8.77307 3.22244 8.77307 3.26894 8.7824C3.35264 8.7964 3.45494 8.8384 3.49679 8.91307C3.52004 8.95974 3.51539 9.01107 3.49679 9.05774C3.48284 9.09507 3.46889 9.1324 3.44564 9.16974C3.42239 9.2024 3.39449 9.23974 3.35729 9.25374C3.35729 9.25374 3.47354 9.34707 3.58049 9.3424Z" fill="#565252"/>
<path d="M3.27824 12.1986C3.27824 12.1986 3.29684 12.3106 3.29684 12.3246C3.26429 12.32 3.23174 12.32 3.19919 12.32C3.17129 12.32 3.14339 12.32 3.12014 12.3246C3.09689 12.3293 3.04574 12.348 3.04574 12.348C3.04109 12.3573 3.03644 12.4086 3.03644 12.4226C3.03179 12.4506 3.02714 12.474 3.01784 12.4973C3.00389 12.5533 2.97599 12.6 2.92949 12.6233C2.83649 12.6793 2.70629 12.6793 2.62259 12.6046C2.56214 12.5486 2.52494 12.474 2.48309 12.404C2.45519 12.3573 2.42729 12.3153 2.39939 12.2733C2.38544 12.2546 2.36684 12.2313 2.35289 12.2126C2.34824 12.208 2.33429 12.1893 2.33429 12.1893C2.33429 12.1893 2.36219 12.1846 2.36684 12.18C2.43659 12.1473 2.50634 12.11 2.56679 12.0633C2.60399 12.0353 2.64119 12.0026 2.68304 11.9793C2.75744 11.9326 2.85974 11.9 2.94344 11.9326C2.98994 11.9513 3.01784 11.9933 3.03644 12.04C3.05039 12.0773 3.06434 12.1193 3.06899 12.1566C3.07364 12.1986 3.07829 12.2406 3.05504 12.278C3.05504 12.278 3.20384 12.2686 3.27824 12.1986Z" fill="#565252"/>
<path d="M5.61719 14.9004C5.61719 14.9004 5.70554 14.9751 5.71484 14.9844C5.68694 15.0031 5.66369 15.0264 5.64044 15.0497C5.62184 15.0684 5.60324 15.0871 5.58464 15.1104C5.57069 15.1291 5.54744 15.1757 5.54744 15.1757C5.54744 15.1851 5.57999 15.2271 5.58929 15.2364C5.60324 15.2597 5.61719 15.2831 5.62649 15.3064C5.64509 15.3531 5.65439 15.4044 5.64044 15.4557C5.60324 15.5584 5.51024 15.6471 5.39399 15.6471C5.31029 15.6471 5.23124 15.6144 5.15684 15.5864C5.11034 15.5677 5.05919 15.5584 5.00804 15.5444C4.98479 15.5397 4.95689 15.5351 4.93364 15.5304C4.92434 15.5304 4.90109 15.5257 4.90109 15.5257C4.90109 15.5257 4.91504 15.5024 4.91969 15.4977C4.95224 15.4277 4.97549 15.3531 4.99409 15.2784C5.00339 15.2317 5.01269 15.1851 5.02664 15.1384C5.04989 15.0544 5.10569 14.9611 5.18939 14.9284C5.23589 14.9097 5.28704 14.9237 5.33354 14.9471C5.37074 14.9657 5.40329 14.9891 5.43584 15.0171C5.46374 15.0451 5.49629 15.0777 5.50559 15.1197C5.49629 15.1057 5.60324 15.0031 5.61719 14.9004Z" fill="#565252"/>
<path d="M14.5406 15.1526C14.5406 15.1526 14.5312 14.9332 14.5312 14.9052C14.5917 14.9192 14.6568 14.9285 14.7219 14.9332C14.773 14.9379 14.8289 14.9425 14.88 14.9379C14.9218 14.9379 15.0241 14.9099 15.0288 14.9052C15.0427 14.8865 15.0567 14.7885 15.066 14.7652C15.08 14.7139 15.0939 14.6672 15.1171 14.6206C15.159 14.5319 15.2195 14.4479 15.3125 14.4106C15.5078 14.3266 15.7589 14.3499 15.903 14.5179C16.01 14.6392 16.0658 14.7932 16.1262 14.9379C16.1634 15.0312 16.2099 15.1199 16.2611 15.2085C16.2843 15.2505 16.3122 15.2926 16.3401 15.3346C16.3494 15.3486 16.3726 15.3905 16.3726 15.3905C16.3726 15.3905 16.3169 15.3952 16.3029 15.3999C16.1588 15.4465 16.0239 15.5072 15.889 15.5819C15.8053 15.6285 15.7263 15.6799 15.6426 15.7219C15.4938 15.7965 15.2892 15.8339 15.1311 15.7592C15.0428 15.7125 15.0009 15.6239 14.973 15.5305C14.9498 15.4559 14.9404 15.3765 14.9358 15.2925C14.9358 15.2132 14.9404 15.1245 14.9869 15.0592C14.9962 15.0592 14.708 15.0359 14.5406 15.1526Z" fill="#565252"/>
<path d="M11.8528 15.4371C11.8528 15.4371 11.8993 15.2224 11.904 15.1944C11.9598 15.2224 12.0202 15.2457 12.0807 15.2691C12.1318 15.2877 12.183 15.3017 12.2341 15.3111C12.276 15.3204 12.3783 15.3204 12.3829 15.3157C12.3969 15.3017 12.4387 15.2084 12.4527 15.1897C12.4759 15.1431 12.5038 15.1011 12.5364 15.0637C12.5968 14.9891 12.6759 14.9237 12.7735 14.9051C12.9828 14.8724 13.2199 14.9517 13.3222 15.1477C13.3966 15.2924 13.4152 15.4557 13.4385 15.6097C13.4571 15.7077 13.4803 15.8057 13.5082 15.9037C13.5222 15.9504 13.5361 16.0017 13.5547 16.0484C13.5594 16.0624 13.5733 16.1091 13.5733 16.1091C13.5733 16.1091 13.5175 16.1044 13.5036 16.1044C13.3548 16.1137 13.206 16.1417 13.0618 16.1837C12.9735 16.2071 12.8851 16.2397 12.7921 16.2584C12.6294 16.2957 12.4201 16.2864 12.2853 16.1697C12.2109 16.1044 12.1923 16.0064 12.1876 15.9084C12.183 15.8291 12.1923 15.7497 12.2109 15.6704C12.2295 15.5957 12.2574 15.5071 12.3178 15.4557C12.3178 15.4511 12.0435 15.3624 11.8528 15.4371Z" fill="#565252"/>
<path d="M12.0807 13.6081C12.0807 13.6081 11.8993 13.7294 11.8714 13.7434C11.8482 13.6827 11.8249 13.6221 11.797 13.5661C11.7738 13.5194 11.7505 13.4727 11.718 13.4261C11.6947 13.3887 11.6203 13.3187 11.6157 13.3141C11.5971 13.3141 11.4994 13.3514 11.4762 13.3561C11.4297 13.3701 11.3785 13.3841 11.3274 13.3887C11.2297 13.3981 11.1274 13.3887 11.0484 13.3327C10.8763 13.2067 10.7647 12.9827 10.8345 12.7727C10.8856 12.6187 10.9833 12.4927 11.0763 12.3621C11.1321 12.2827 11.1879 12.1941 11.2344 12.1054C11.2576 12.0634 11.2809 12.0167 11.3041 11.9701C11.3134 11.9561 11.332 11.9141 11.332 11.9141C11.332 11.9141 11.3646 11.9561 11.3785 11.9654C11.4948 12.0634 11.6157 12.1521 11.7459 12.2267C11.8296 12.2734 11.9133 12.3154 11.9923 12.3667C12.1318 12.4554 12.276 12.6094 12.2899 12.7867C12.2992 12.8894 12.2434 12.9687 12.1737 13.0434C12.1179 13.0994 12.0574 13.1554 11.9923 13.1974C11.9272 13.2394 11.8482 13.2814 11.7691 13.2721C11.7645 13.2674 11.8993 13.5241 12.0807 13.6081Z" fill="#565252"/>
<path d="M11.718 11.62C11.718 11.62 11.5738 11.4566 11.5552 11.4333C11.611 11.4053 11.6668 11.368 11.718 11.3353C11.7598 11.3073 11.8063 11.2746 11.8435 11.2373C11.8761 11.2093 11.9365 11.1253 11.9365 11.1206C11.9365 11.102 11.8854 11.0133 11.8761 10.99C11.8528 10.9433 11.8342 10.8966 11.8249 10.8453C11.8017 10.752 11.797 10.6493 11.8435 10.5606C11.9412 10.374 12.1504 10.2293 12.369 10.2666C12.5271 10.2946 12.6666 10.3786 12.8107 10.4486C12.8991 10.4953 12.9921 10.5373 13.0851 10.57C13.1316 10.5886 13.1781 10.6026 13.2246 10.6166C13.2432 10.6213 13.285 10.6353 13.285 10.6353C13.285 10.6353 13.2478 10.6726 13.2385 10.6866C13.1595 10.8126 13.0897 10.948 13.0339 11.088C13.0014 11.1766 12.9735 11.2653 12.9316 11.3493C12.8619 11.5033 12.7317 11.662 12.5596 11.704C12.462 11.7273 12.369 11.6806 12.2946 11.6246C12.2295 11.578 12.169 11.5266 12.1179 11.466C12.0667 11.4053 12.0156 11.3306 12.0109 11.2513C12.0063 11.2606 11.7738 11.4286 11.718 11.62Z" fill="#565252"/>
<path d="M12.648 9.57572C12.648 9.57572 12.462 9.45906 12.4387 9.44506C12.4852 9.39839 12.5271 9.35172 12.5689 9.30039C12.6015 9.25839 12.634 9.21639 12.6619 9.16972C12.6852 9.13239 12.7177 9.03439 12.7177 9.02972C12.7131 9.01105 12.6387 8.94105 12.6201 8.92239C12.5875 8.88505 12.555 8.84306 12.5271 8.80106C12.4759 8.71706 12.4434 8.61905 12.462 8.52105C12.4992 8.31105 12.6573 8.11506 12.8758 8.08706C13.0339 8.06839 13.192 8.10572 13.3501 8.13372C13.4478 8.15239 13.5501 8.16172 13.6477 8.17105C13.6989 8.17572 13.7454 8.17572 13.7965 8.17572C13.8151 8.17572 13.8616 8.17572 13.8616 8.17572C13.8616 8.17572 13.8384 8.22239 13.8337 8.23639C13.7919 8.38106 13.7686 8.53039 13.7547 8.67972C13.75 8.77305 13.7454 8.86639 13.7361 8.95972C13.7128 9.12772 13.6338 9.31905 13.485 9.40772C13.3966 9.45905 13.299 9.44039 13.206 9.41239C13.1316 9.38905 13.0572 9.35639 12.9921 9.30972C12.927 9.26772 12.8572 9.21172 12.8293 9.13706C12.82 9.14172 12.6433 9.37039 12.648 9.57572Z" fill="#565252"/>
<path d="M8.76059 7.90984C8.76059 7.90984 8.56529 8.00784 8.53739 8.01717C8.52344 7.9565 8.50484 7.89117 8.48624 7.8305C8.46764 7.77917 8.44904 7.7325 8.42579 7.68117C8.40719 7.64384 8.34209 7.55984 8.33744 7.55984C8.31884 7.55517 8.22119 7.5785 8.19329 7.58317C8.14214 7.5925 8.09099 7.59717 8.04449 7.59717C7.94684 7.59717 7.84919 7.57384 7.77479 7.50384C7.62134 7.35917 7.53764 7.1165 7.63064 6.9205C7.70039 6.77584 7.81664 6.65917 7.92359 6.5425C7.99334 6.46784 8.05379 6.3885 8.11424 6.30917C8.14214 6.26717 8.17004 6.22517 8.19794 6.18317C8.20724 6.16917 8.23049 6.13184 8.23049 6.13184C8.23049 6.13184 8.25839 6.1785 8.26769 6.18784C8.36999 6.29984 8.48159 6.4025 8.60249 6.49117C8.67689 6.54717 8.75594 6.5985 8.82569 6.65917C8.95124 6.7665 9.07214 6.93917 9.06749 7.11184C9.06284 7.2145 8.99774 7.28917 8.92334 7.34984C8.86289 7.40117 8.79314 7.44317 8.72339 7.4805C8.65364 7.51317 8.56994 7.54584 8.49089 7.52717C8.49089 7.53184 8.59319 7.8025 8.76059 7.90984Z" fill="#565252"/>
<path d="M3.30614 11.0646C3.30614 11.0646 3.21314 11.2653 3.19919 11.2886C3.14804 11.2466 3.09689 11.2093 3.04109 11.1766C2.99459 11.1486 2.95274 11.1206 2.90159 11.0973C2.86439 11.0786 2.76209 11.0553 2.75744 11.0553C2.73884 11.0646 2.67839 11.144 2.65979 11.1626C2.62724 11.2 2.59004 11.2373 2.55284 11.27C2.47844 11.3306 2.38544 11.3773 2.28314 11.368C2.07389 11.354 1.85999 11.2186 1.80419 11.004C1.76699 10.8453 1.78559 10.6866 1.79489 10.528C1.79954 10.43 1.80419 10.3273 1.79489 10.2293C1.79024 10.178 1.79024 10.1313 1.78094 10.08C1.78094 10.0613 1.77629 10.0146 1.77629 10.0146C1.77629 10.0146 1.82744 10.0333 1.84139 10.038C1.99019 10.0613 2.13899 10.0706 2.29244 10.066C2.38544 10.0613 2.47844 10.052 2.57144 10.0566C2.73884 10.0613 2.93879 10.1173 3.04109 10.2573C3.10154 10.3366 3.09689 10.4393 3.07829 10.5326C3.06434 10.612 3.03644 10.6866 3.00389 10.7566C2.97134 10.8266 2.92484 10.9013 2.85044 10.9386C2.85974 10.9386 3.11084 11.088 3.30614 11.0646Z" fill="#565252"/>
<path d="M2.92485 13.6311C2.92485 13.6311 2.88765 13.8458 2.883 13.8785C2.82255 13.8551 2.7621 13.8318 2.70165 13.8131C2.6505 13.7991 2.59935 13.7851 2.5482 13.7758C2.50635 13.7711 2.3994 13.7711 2.3994 13.7758C2.38545 13.7898 2.34825 13.8831 2.33895 13.9065C2.3157 13.9531 2.29245 13.9951 2.26455 14.0371C2.20875 14.1165 2.1297 14.1865 2.03205 14.2051C1.8228 14.2471 1.581 14.1771 1.47405 13.9811C1.395 13.8411 1.37175 13.6778 1.3392 13.5238C1.3206 13.4258 1.2927 13.3278 1.26015 13.2345C1.2462 13.1878 1.2276 13.1411 1.209 13.0945C1.20435 13.0805 1.18575 13.0338 1.18575 13.0338C1.18575 13.0338 1.24155 13.0385 1.2555 13.0385C1.395 13.0198 1.5438 12.9871 1.68795 12.9405C1.7763 12.9125 1.86465 12.8751 1.953 12.8518C2.11575 12.8098 2.325 12.8098 2.45985 12.9171C2.5389 12.9778 2.56215 13.0758 2.5668 13.1738C2.57145 13.2531 2.57145 13.3325 2.55285 13.4118C2.5389 13.4865 2.51565 13.5751 2.4552 13.6311C2.45985 13.6358 2.73885 13.7105 2.92485 13.6311Z" fill="#565252"/>
<path d="M5.00804 13.7993C5.00804 13.7993 4.98479 14.0187 4.98014 14.0467C4.91969 14.0233 4.85924 14.0093 4.79414 13.9907C4.74299 13.9767 4.69184 13.9673 4.64069 13.9627C4.59884 13.958 4.49654 13.9673 4.49189 13.972C4.47794 13.986 4.44539 14.084 4.43609 14.1073C4.41749 14.154 4.39424 14.2007 4.36634 14.2427C4.31519 14.3267 4.24079 14.3967 4.14314 14.4247C3.93854 14.4807 3.69209 14.4247 3.57119 14.238C3.48284 14.1027 3.45029 13.944 3.40844 13.79C3.38054 13.692 3.34799 13.5987 3.31079 13.5053C3.29219 13.4587 3.27359 13.412 3.25034 13.3653C3.24104 13.3513 3.22244 13.3093 3.22244 13.3093C3.22244 13.3093 3.27824 13.3093 3.29219 13.3093C3.44099 13.2813 3.58514 13.244 3.72464 13.188C3.81299 13.1553 3.89669 13.1133 3.98504 13.0853C4.14314 13.034 4.35239 13.02 4.49654 13.1227C4.58024 13.1787 4.60814 13.2767 4.62209 13.3747C4.63139 13.454 4.63604 13.5333 4.62674 13.6127C4.61744 13.6873 4.59884 13.776 4.54304 13.8367C4.54769 13.832 4.82669 13.888 5.00804 13.7993Z" fill="#565252"/>
<path d="M6.46349 17.0194C6.46349 17.0194 6.59369 17.1967 6.60764 17.2201C6.54719 17.2434 6.49139 17.2714 6.43559 17.3041C6.38909 17.3274 6.34259 17.3554 6.30074 17.3881C6.26819 17.4161 6.19844 17.4907 6.19844 17.4954C6.19844 17.514 6.24029 17.6074 6.24959 17.6307C6.26819 17.6774 6.28214 17.7287 6.29144 17.7754C6.31004 17.8734 6.30074 17.976 6.24959 18.06C6.13334 18.2374 5.91479 18.3634 5.70089 18.3074C5.54279 18.2654 5.41259 18.1721 5.27774 18.0881C5.19404 18.0321 5.10569 17.9854 5.01734 17.9434C4.97084 17.92 4.92434 17.9014 4.88249 17.8827C4.86854 17.8781 4.82204 17.8594 4.82204 17.8594C4.82204 17.8594 4.86389 17.822 4.87319 17.8127C4.96619 17.6914 5.04524 17.5654 5.11034 17.43C5.15219 17.346 5.18939 17.2574 5.23589 17.178C5.31959 17.0334 5.46374 16.884 5.64044 16.8607C5.73809 16.8467 5.82644 16.898 5.90084 16.9634C5.96129 17.0147 6.01709 17.0707 6.06359 17.1361C6.11009 17.2014 6.15194 17.276 6.15194 17.36C6.14264 17.3554 6.39374 17.2061 6.46349 17.0194Z" fill="#565252"/>
<path d="M8.1561 15.6193C8.1561 15.6193 8.02125 15.792 8.00265 15.8153C7.96545 15.764 7.91895 15.7173 7.8771 15.6706C7.8399 15.6333 7.8027 15.596 7.76085 15.5633C7.7283 15.5353 7.6353 15.4886 7.626 15.4933C7.6074 15.498 7.52835 15.5633 7.50975 15.5773C7.4679 15.6053 7.42605 15.6333 7.37955 15.6566C7.2912 15.6986 7.1889 15.722 7.0959 15.6893C6.89595 15.624 6.7146 15.4466 6.7146 15.2273C6.7146 15.064 6.7704 14.9146 6.81225 14.7606C6.84015 14.6626 6.8634 14.5646 6.882 14.4666C6.8913 14.4153 6.89595 14.3686 6.90525 14.3173C6.90525 14.2986 6.91455 14.252 6.91455 14.252C6.91455 14.252 6.96105 14.28 6.975 14.2893C7.1145 14.3453 7.25865 14.3873 7.40745 14.4153C7.50045 14.434 7.59345 14.4433 7.6818 14.4666C7.84455 14.5086 8.0259 14.6066 8.09565 14.77C8.13285 14.8633 8.1096 14.9613 8.06775 15.05C8.0352 15.1246 7.99335 15.19 7.9422 15.2553C7.89105 15.316 7.8306 15.3813 7.75155 15.4C7.7469 15.4 7.95615 15.6006 8.1561 15.6193Z" fill="#565252"/>
<path d="M6.52394 14.4059C6.52394 14.4059 6.30539 14.3732 6.27749 14.3685C6.30074 14.3079 6.31934 14.2472 6.33794 14.1865C6.35189 14.1352 6.36584 14.0839 6.37049 14.0325C6.37514 13.9905 6.37049 13.8832 6.36584 13.8832C6.35189 13.8692 6.25889 13.8319 6.23564 13.8225C6.18914 13.8039 6.14264 13.7759 6.10079 13.7479C6.02174 13.6919 5.95199 13.6172 5.92874 13.5192C5.88224 13.3139 5.94734 13.0665 6.13799 12.9545C6.27749 12.8705 6.43559 12.8425 6.58904 12.8052C6.68669 12.7819 6.78434 12.7539 6.87734 12.7165C6.92384 12.6979 6.97034 12.6792 7.01684 12.6605C7.03079 12.6559 7.07729 12.6372 7.07729 12.6372C7.07729 12.6372 7.07264 12.6932 7.07729 12.7072C7.09589 12.8565 7.13309 13.0059 7.18424 13.1459C7.21679 13.2345 7.25399 13.3232 7.27724 13.4119C7.32374 13.5705 7.32839 13.7805 7.22144 13.9252C7.16099 14.0045 7.06334 14.0325 6.96569 14.0419C6.88664 14.0512 6.80759 14.0512 6.72854 14.0372C6.65414 14.0232 6.56579 14.0045 6.50999 13.9439C6.50999 13.9392 6.44024 14.2239 6.52394 14.4059Z" fill="#565252"/>
<path d="M13.113 12.315C13.113 12.315 13.0758 11.8903 13.0758 11.8343C13.1967 11.853 13.3222 11.8623 13.4478 11.8717C13.5501 11.8763 13.6524 11.8763 13.7547 11.867C13.8384 11.8577 14.0337 11.8017 14.0383 11.7923C14.0616 11.7597 14.0848 11.5637 14.0941 11.517C14.1127 11.419 14.1406 11.3257 14.1778 11.2323C14.2476 11.055 14.3592 10.8917 14.5359 10.8077C14.9079 10.6303 15.3961 10.649 15.6937 10.957C15.9123 11.1857 16.0332 11.475 16.168 11.755C16.2517 11.9277 16.3494 12.1003 16.4563 12.2637C16.5075 12.3477 16.5633 12.427 16.6191 12.5063C16.6377 12.5343 16.6888 12.609 16.6888 12.609C16.6888 12.609 16.5865 12.6277 16.5586 12.637C16.2843 12.7397 16.0239 12.8703 15.7774 13.029C15.624 13.127 15.4752 13.2343 15.3171 13.323C15.0334 13.477 14.6382 13.5797 14.3266 13.4397C14.1499 13.3603 14.0569 13.1877 14.0011 13.0057C13.9546 12.861 13.9174 12.707 13.9081 12.553C13.8988 12.4037 13.9035 12.2263 13.9872 12.0957C13.9872 12.0863 13.4245 12.077 13.113 12.315Z" fill="#565252"/>
<path d="M9.05819 11.6197C9.05819 11.6197 8.63504 11.657 8.57924 11.6617C8.59784 11.5404 8.60714 11.4144 8.61179 11.2884C8.61644 11.1857 8.61644 11.083 8.60714 10.9804C8.59784 10.8964 8.54204 10.7004 8.53274 10.6957C8.50019 10.6724 8.30489 10.649 8.25839 10.6397C8.16074 10.621 8.06774 10.593 7.97474 10.5604C7.79804 10.4904 7.63529 10.3784 7.54694 10.201C7.36559 9.8277 7.38419 9.3377 7.69109 9.03903C7.91894 8.8197 8.20724 8.69837 8.48159 8.55837C8.65364 8.47437 8.82569 8.37637 8.98844 8.26903C9.07214 8.2177 9.15119 8.1617 9.23024 8.10103C9.25814 8.08237 9.33254 8.02637 9.33254 8.02637C9.33254 8.02637 9.35114 8.12903 9.36044 8.15703C9.46739 8.43237 9.59759 8.6937 9.75104 8.94103C9.84869 9.09503 9.95564 9.24437 10.044 9.40303C10.2021 9.6877 10.2997 10.0844 10.1649 10.397C10.0858 10.5744 9.91379 10.6677 9.73709 10.7284C9.59294 10.7797 9.43949 10.8124 9.28604 10.8217C9.13724 10.831 8.96054 10.8264 8.83034 10.7424C8.82569 10.747 8.81639 11.3117 9.05819 11.6197Z" fill="#565252"/>
<path d="M10.9414 9.08122C10.9414 9.08122 10.5183 9.07189 10.4578 9.06722C10.4904 8.94589 10.5136 8.82456 10.5369 8.70322C10.5555 8.60056 10.5648 8.49789 10.5694 8.39522C10.5694 8.31122 10.5369 8.11055 10.5276 8.10589C10.495 8.07789 10.3044 8.03589 10.2625 8.02189C10.1695 7.99389 10.0765 7.95656 9.99285 7.90989C9.82545 7.82122 9.67665 7.69056 9.61155 7.50389C9.4767 7.11189 9.5511 6.62655 9.89055 6.36522C10.1416 6.17389 10.4439 6.08522 10.7322 5.98256C10.9135 5.91722 11.0949 5.83789 11.2669 5.75389C11.3553 5.71189 11.439 5.66522 11.5227 5.61856C11.5459 5.59522 11.625 5.55322 11.625 5.55322C11.625 5.55322 11.6296 5.66055 11.6389 5.68855C11.7133 5.97322 11.811 6.24855 11.9412 6.51455C12.0202 6.67789 12.1086 6.83656 12.1783 7.00922C12.2992 7.30789 12.355 7.71389 12.183 8.00789C12.0853 8.17589 11.904 8.24589 11.718 8.28322C11.5692 8.31589 11.4111 8.32989 11.2576 8.32522C11.1088 8.31589 10.9321 8.29256 10.8159 8.19456C10.8112 8.18989 10.7415 8.74522 10.9414 9.08122Z" fill="#565252"/>
<path d="M7.13309 9.22118C7.13309 9.22118 6.88199 9.56651 6.84944 9.61318C6.77039 9.51985 6.68204 9.42651 6.59369 9.34251C6.51929 9.27251 6.44024 9.20251 6.36119 9.14185C6.29144 9.09518 6.11009 9.01118 6.09614 9.01118C6.05894 9.02051 5.91014 9.15585 5.87294 9.18385C5.79389 9.24451 5.71484 9.30051 5.62649 9.34251C5.45909 9.43118 5.26379 9.48251 5.07779 9.43118C4.68254 9.32385 4.32449 8.98785 4.30124 8.55851C4.28729 8.24585 4.38494 7.94251 4.45934 7.64385C4.51049 7.45718 4.54769 7.26585 4.57559 7.06985C4.58954 6.97185 4.59884 6.87851 4.60814 6.78051C4.61279 6.74785 4.61744 6.65918 4.61744 6.65918C4.61744 6.65918 4.70579 6.71518 4.73369 6.72451C5.00804 6.82718 5.29169 6.89718 5.57999 6.94385C5.76134 6.97185 5.94269 6.98585 6.11939 7.02785C6.43559 7.09785 6.79829 7.27985 6.94244 7.58785C7.02614 7.76518 6.97964 7.95651 6.90989 8.12918C6.84944 8.27385 6.77504 8.40918 6.68204 8.53518C6.58904 8.65651 6.47279 8.78718 6.32399 8.82918C6.32399 8.81985 6.74249 9.19785 7.13309 9.22118Z" fill="#565252"/>
<path d="M6.58439 11.7413C6.58439 11.7413 6.44489 12.1426 6.42629 12.1986C6.32399 12.1333 6.21239 12.068 6.10079 12.012C6.00779 11.9653 5.91479 11.9233 5.81714 11.8906C5.73809 11.8626 5.53814 11.8393 5.52884 11.844C5.49629 11.8673 5.39399 12.0353 5.36609 12.0726C5.31029 12.152 5.24519 12.2313 5.17544 12.2966C5.04059 12.4273 4.86854 12.5346 4.67789 12.5393C4.26869 12.5533 3.82694 12.334 3.68279 11.928C3.57584 11.6293 3.58514 11.3166 3.57119 11.004C3.56654 10.808 3.54329 10.6166 3.51539 10.4206C3.50144 10.3226 3.48284 10.2293 3.46424 10.1313C3.45494 10.0986 3.44099 10.01 3.44099 10.01C3.44099 10.01 3.54329 10.038 3.57119 10.038C3.86414 10.052 4.15709 10.0426 4.44539 10.0006C4.62674 9.97264 4.80344 9.9353 4.98479 9.9213C5.30564 9.8933 5.70554 9.9633 5.93804 10.2153C6.06824 10.36 6.08219 10.556 6.06359 10.7426C6.04964 10.8966 6.01709 11.0506 5.96129 11.1953C5.91014 11.3353 5.83574 11.494 5.70554 11.578C5.69624 11.592 6.20309 11.83 6.58439 11.7413Z" fill="#565252"/>
<path d="M4.53374 16.0673C4.53374 16.0673 4.48259 16.492 4.47329 16.548C4.35704 16.506 4.23614 16.4686 4.11989 16.436C4.02224 16.408 3.91994 16.3893 3.81764 16.3753C3.73394 16.366 3.53399 16.3846 3.52469 16.3893C3.49679 16.4173 3.43169 16.604 3.41309 16.646C3.37589 16.7346 3.32939 16.8233 3.27359 16.9073C3.17129 17.066 3.02714 17.206 2.83649 17.2526C2.43659 17.3506 1.96229 17.234 1.73444 16.87C1.56704 16.604 1.50659 16.2913 1.43219 15.9926C1.38569 15.806 1.32524 15.6193 1.25549 15.4373C1.21829 15.3486 1.18109 15.2553 1.14389 15.1666C1.12994 15.134 1.09274 15.0546 1.09274 15.0546C1.09274 15.0546 1.19969 15.0593 1.22759 15.0546C1.51589 15.008 1.79954 14.9333 2.07389 14.8306C2.24594 14.7653 2.41334 14.6906 2.58539 14.6393C2.89694 14.546 3.30149 14.5273 3.57584 14.728C3.73394 14.8446 3.78509 15.0313 3.80834 15.218C3.82694 15.372 3.82694 15.526 3.80369 15.68C3.78044 15.8293 3.74324 16.002 3.63164 16.1093C3.63629 16.114 4.18034 16.24 4.53374 16.0673Z" fill="#565252"/>
</svg>
