<?xml version="1.0" encoding="UTF-8" standalone="no"?>
<svg version="1.1" viewBox="0 0 137 36.703049" width="1315.24" height="352.36" xml:space="preserve" xmlns="http://www.w3.org/2000/svg" xmlns:svg="http://www.w3.org/2000/svg"><defs><linearGradient id="a" x1="115.24705" y1="25.188354" x2="117.19229" y2="27.342627" gradientUnits="userSpaceOnUse" gradientTransform="scale(1 .9919743)"><stop offset=".37" stop-color="#0A1754"/><stop offset="1" stop-color="#1A2B80"/></linearGradient></defs><path d="M21.48 8.6748153c-1.45-1.3966999-3.316-2.1059615-5.641-2.1059615H4.849L0 30.603399h6.35L10.041 12.3352h4.984c1.345 0 2.294.948328 2.294 2.189288 0 1.481017-1.24 2.877717-2.742 2.877717h-3.92l-1.168 5.777258h4.869c2.607 0 4.828-.896744 6.621-2.742808 1.794-1.845073 2.711-4.003609 2.711-6.402203.01-2.200199-.73-3.961945-2.21-5.3596367Zm25.994-2.1158812h-6.392L38.236 20.676712c-.605 2.961044-1.94 4.410318-4.39 4.410318-2.45 0-4.119-1.334205-3.358-5.067005L33.2 6.5688538h-6.391L24.327 18.862391c-.209 1.167554-.428 2.241862-.428 3.148527.084 4.493643 2.159 6.77816 4.682 8.008208 1.783.875914 3.17 1.001894 4.682 1.001894 6.652 0 9.926-3.327081 11.324-10.073499l2.888-14.3885869Zm66.18 1.8976468c0-1.2935345-.251-2.4819197-.751-3.5353964L91.131 24.670401l-1.21 5.942918h4.067l15.839-14.357836c2.555-2.335108 3.827-4.932096 3.827-7.7989021Zm-9.551-1.9194703c1.251 0 2.241.7935795 2.575 1.8569759l5.37-4.8596821a8.026 7.9615857 0 0 0-.907-.9800706C109.514 1.0118138 107.377 0 104.749 0c-5.015 0-8.957 3.0969438-10.364 8.7789726h6.809c.573-1.3441252 1.626-2.241862 2.909-2.241862Zm-1.147 18.1332904-6.548 5.942918h12.324l-1.783-5.942918Zm27.892 12.032648 2.482-12.032648h-16.339L137 6.5371106h-9.374L108.43 23.962131l1.992 6.65218h14.608l-1.262 6.088738" fill="#1a2b80"/><path d="m133.664 23.064394 2.773-13.8469688-8.654 7.8931398-1.179 5.953829Zm-71.665 1.606007H51.853l3.65-18.1114669h-6.392L44.263 30.614311H55.44l6.56-5.94391Z" fill="#1a2b80"/><path d="M73.792 12.49094h7.09l1.2-5.9320059h-8.123c-9.166 0-10.104 5.8387609-10.104 7.6530819 0 2.168456 1.49 5.745515 7.497 7.163046 1.783.416629 2.92 1.115971 2.69 2.283525-.198.990982-1.2 1.021734-3.16 1.021734h-6.485l-6.538 5.932998h12.513c9.676 0 10.156-5.942918 10.156-7.757239 0-1.501849-.71-5.526289-7.237-7.079721-2.346-.563441-2.982-1.418523-2.7-2.283525.198-.636847.99-1.001894 3.2-1.001894Z" fill="#1a2b80"/><path d="M116.991 24.670401a3281.381 3255.0456 0 0 0-6.559 5.942918h7.789c1.199-1.084228 5.579-5.046173 6.559-5.942918Z" fill="url(#a)"/></svg>