<?xml version="1.0" encoding="UTF-8" standalone="no"?>
<svg
   xmlns:dc="http://purl.org/dc/elements/1.1/"
   xmlns:cc="http://creativecommons.org/ns#"
   xmlns:rdf="http://www.w3.org/1999/02/22-rdf-syntax-ns#"
   xmlns:svg="http://www.w3.org/2000/svg"
   xmlns="http://www.w3.org/2000/svg"
   version="1.1"
   id="svg2"
   viewBox="0 0 552.59998 171.2"
   height="48.316444mm"
   width="155.95599mm">
  <defs
     id="defs4" />
  <metadata
     id="metadata7">
    <rdf:RDF>
      <cc:Work
         rdf:about="">
        <dc:format>image/svg+xml</dc:format>
        <dc:type
           rdf:resource="http://purl.org/dc/dcmitype/StillImage" />
        <dc:title></dc:title>
      </cc:Work>
    </rdf:RDF>
  </metadata>
  <g
     transform="translate(-35.128571,-361.04792)"
     id="layer1">
    <g
       transform="translate(3.428571,26.347919)"
       id="g3339">
      <g
         id="g3341">
        <path
           style="fill:#e30171"
           class="st0"
           d="m 584.3,505.9 c -57.1,0 -113.9,0 -170.9,0 0,-57.1 0,-114.1 0,-171.2 57,0 113.9,0 170.9,0 0,57.1 0,114 0,171.2 z M 437,430.3 c 2.9,9.7 5.7,19.2 8.6,28.9 21.1,0 42,0 63.1,0 -1.8,8.9 -3.5,17.6 -5.3,26.5 10.4,0 20.4,0 30.7,0 3.5,-17.4 7,-34.8 10.6,-52.4 -23.5,0 -46.7,0 -70.6,0 29,-26.4 57.5,-52.3 86.5,-78.7 -1.5,0 -2.4,0 -3.2,0 -11.7,0 -23.4,0 -35.1,0 -1.7,0 -2.9,0.5 -4.1,1.6 -22,20.1 -44,40.2 -66.1,60.2 -4.9,4.6 -10,9.3 -15.1,13.9 z m 121.3,-63.8 c -0.5,0.3 -0.8,0.4 -1,0.6 -11.9,10.9 -23.8,21.7 -35.7,32.6 -0.7,0.6 -1.1,1.6 -1.3,2.6 -1,4.5 -1.8,9 -2.7,13.5 -0.7,3.5 -1.3,7 -2,10.5 10.4,0 20.5,0 30.7,0 3.9,-20 7.9,-39.8 12,-59.8 z"
           id="path3343" />
        <path
           style="fill:#021523"
           class="st1"
           d="m 210.7,367.1 c 9.3,0 18.5,0 27.8,0 -2,9.8 -3.9,19.5 -5.9,29.2 -2.7,13.2 -5.4,26.5 -8.3,39.7 -1.5,6.9 -4.3,13.4 -8.2,19.3 -5.1,7.6 -11.9,13 -20.6,15.6 -11.5,3.4 -23.2,4.3 -34.7,0.3 -20.3,-7 -26.8,-24.3 -24.5,-41.2 2.2,-15.8 5.9,-31.3 9,-47 1,-5.2 2.1,-10.5 3.2,-15.8 9.3,0 18.5,0 27.9,0 -1.5,7.4 -3,14.8 -4.4,22.1 -2.6,13 -5.3,26 -7.7,39.1 -0.4,2.4 -0.4,4.9 -0.2,7.3 0.8,7.2 5.7,11.5 13.3,12.1 10.4,0.7 17.3,-4.3 20,-15.2 2.3,-9.6 4.1,-19.3 6.1,-28.9 2.4,-11.7 4.7,-23.3 7,-35 -0.2,-0.6 0,-1 0.2,-1.6 z"
           id="path3345" />
        <path
           style="fill:#031523"
           class="st2"
           d="m 59.4,471.8 c -9.3,0 -18.4,0 -27.7,0 7,-34.9 14.1,-69.7 21.1,-104.6 0.7,0 1.3,-0.1 1.9,-0.1 15.4,0 30.9,0 46.3,0 11,0 20.4,3.7 27.3,12.5 8,10.2 8.4,21.7 4.1,33.4 -5.9,16.2 -20.7,26.3 -37.9,26.4 -7.1,0.1 -14.2,0 -21.5,0 1.7,-8.5 3.4,-16.8 5.1,-25.2 5.6,0 11.1,0 16.6,0 7,0 12.6,-5.8 12.4,-12.8 -0.2,-4.9 -3.6,-8.9 -8.6,-9.1 -7.6,-0.3 -15.3,-0.1 -23,-0.1 -5.4,26.6 -10.8,53 -16.1,79.6 z"
           id="path3347" />
        <path
           style="fill:#031523"
           class="st2"
           d="m 303.8,471.8 c 1.7,-8.6 3.4,-17.1 5.2,-25.8 0.9,0 1.7,0 2.6,0 10.7,0 21.4,0 32.1,0 1.9,0 3.8,-0.2 5.7,-0.4 2.3,-0.3 4.1,-1.2 4.7,-3.7 0.6,-2.5 0,-4.8 -2.1,-6.1 -2.9,-1.7 -6,-3.1 -9.1,-4 -6.7,-1.8 -13.3,-4 -19.1,-8 -7.1,-4.8 -12.4,-11.1 -13.5,-19.8 -1.5,-12.2 3.2,-22 13.1,-29.1 6.4,-4.6 13.7,-6.9 21.4,-7.2 14.7,-0.6 29.5,-0.6 44.5,-0.8 -1.8,8.9 -3.5,17.4 -5.2,26.1 -0.9,0 -1.7,0 -2.5,0 -11,0.1 -22,0.1 -33,0.2 -2,0 -4.1,0.4 -6,1.1 -4.1,1.4 -5.1,5.9 -1.6,8.4 2.7,2 6.1,3 9.2,4.3 5.2,2 10.7,3.3 15.6,5.9 11.6,6.2 18,15.7 16.5,29.3 -1.4,13.2 -8.8,21.7 -21.1,26.3 -7.1,2.6 -14.6,3.4 -22.1,3.5 -11.2,0.1 -22.3,0 -33.5,0 -0.6,-0.1 -1.1,-0.2 -1.8,-0.2 z"
           id="path3349" />
        <path
           style="fill:#031623"
           class="st3"
           d="m 224.7,471.1 c 1.6,-7.9 3.1,-15.9 4.7,-23.8 5.3,-26.5 10.7,-52.9 16,-79.4 0,-0.2 0.1,-0.4 0.2,-0.8 9.2,0 18.4,0 27.8,0 -5.3,26.2 -10.5,52.4 -15.9,78.8 14.8,0 29.5,0 44.5,0 -1.8,8.6 -3.5,16.9 -5.3,25.2 -23.9,0.1 -48,0 -72,0 z"
           id="path3351" />
        <path
           style="fill:#010912"
           class="st4"
           d="m 224.7,471.1 c 24,0 48,0 72,0 -0.7,0.3 -1.5,0.7 -2.2,0.7 -14.6,0 -29.2,0 -43.8,0 -8,0 -16.1,0 -24.1,0 -0.6,0.1 -1.2,-0.4 -1.9,-0.7 z"
           id="path3353" />
      </g>
    </g>
  </g>
  <style
     type="text/css"
     id="style3337">
	.st0{fill:#E30171;}
	.st1{fill:#021523;}
	.st2{fill:#031523;}
	.st3{fill:#031623;}
	.st4{fill:#010912;}
</style>
</svg>
