<svg xmlns="http://www.w3.org/2000/svg" width="141.05mm" height="15.72mm" viewBox="0 0 399.83 44.56"><defs><style>.a{fill:#fff;}.b{fill:#5bc2de;}</style></defs><title>Tekengebied 1</title><path class="a" d="M11.9,34.35,4.17,14.45H0V10.33H11.89v4.12H8.82L13.9,27.86,19,14.45H15.72V10.33H27.27v4.12H23.64L16.1,34.35Z"/><path class="a" d="M27.34,22.14a12,12,0,0,1,3.62-9,12.19,12.19,0,0,1,8.81-3.5,12.37,12.37,0,0,1,8.77,3.45,11.85,11.85,0,0,1,3.66,9,11.92,11.92,0,0,1-3.65,9,12.3,12.3,0,0,1-8.78,3.46,12.12,12.12,0,0,1-12.43-12.5Zm4.91,0a7.87,7.87,0,0,0,2.19,5.74,7.49,7.49,0,0,0,10.69,0,7.94,7.94,0,0,0,2.16-5.71,7.82,7.82,0,0,0-2.2-5.72,7.16,7.16,0,0,0-5.32-2.25,7.05,7.05,0,0,0-5.4,2.3A8.06,8.06,0,0,0,32.25,22.13Z"/><path class="a" d="M55.62,14.45V10.33h3.07V6.69l4.64-4.25v7.89H67.7v4.12H63.33V25.93a10.53,10.53,0,0,0,.31,3.4c.2.44.71.65,1.52.65a6.83,6.83,0,0,0,2.54-.49v4.23a10.65,10.65,0,0,1-3.56.63,5.79,5.79,0,0,1-3.45-.94A4,4,0,0,1,59,31.05a24.32,24.32,0,0,1-.34-4.88V14.45Z"/><path class="a" d="M96,23.32H76.12a8.63,8.63,0,0,0,2.59,5.29,7.68,7.68,0,0,0,5.49,2,9,9,0,0,0,7.69-3.91L96,28.54a12.37,12.37,0,0,1-5.2,4.6,15.62,15.62,0,0,1-6.69,1.5,13.51,13.51,0,0,1-9.27-3.38A11.53,11.53,0,0,1,71,22.14a11.78,11.78,0,0,1,3.74-9,12.24,12.24,0,0,1,8.61-3.51A12.69,12.69,0,0,1,92,13.1Q95.85,16.54,96,23.32ZM91.21,20a8.42,8.42,0,0,0-2.59-4.51,7.16,7.16,0,0,0-5.15-2,6.76,6.76,0,0,0-4.76,1.82A7.79,7.79,0,0,0,76.29,20Z"/><path class="b" d="M103.39,29.83V14.45H99.46V10.33H108v3c2.8-2.23,5.53-3.35,8.22-3.35a5.58,5.58,0,0,1,5.58,3.69Q126.44,10,130.42,10a6.55,6.55,0,0,1,3.77,1,4.93,4.93,0,0,1,2,2.57,15.53,15.53,0,0,1,.51,4.58V29.83h4.13V34h-8.76V19a15.64,15.64,0,0,0-.19-2.9,2.32,2.32,0,0,0-.92-1.39,2.94,2.94,0,0,0-1.8-.55q-3,0-6.76,3.05V29.83h4V34h-8.69V18.51a6.36,6.36,0,0,0-.67-3.36,2.52,2.52,0,0,0-2.28-1q-2.62,0-6.77,3.05V29.83h4.15V34h-13V29.83Z"/><path class="b" d="M167,29.83V34h-8.11V31.08a10.54,10.54,0,0,1-7.52,3.27,8.17,8.17,0,0,1-5.6-2.1,6.83,6.83,0,0,1-2.38-5.37,6.9,6.9,0,0,1,2.53-5.47A9,9,0,0,1,152,19.24a11.73,11.73,0,0,1,6.42,2V18.9a9.08,9.08,0,0,0-.34-2.79,3.6,3.6,0,0,0-1.6-1.75,6.09,6.09,0,0,0-3.29-.79,5.35,5.35,0,0,0-5.05,2.79l-4.44-1.17q3-5.52,10.2-5.52a13.19,13.19,0,0,1,4.6.72,6.83,6.83,0,0,1,2.9,1.85,6.19,6.19,0,0,1,1.28,2.46,19.08,19.08,0,0,1,.33,4.2V29.83Zm-8.57-4.66a9.84,9.84,0,0,0-6.08-2.34A4.71,4.71,0,0,0,149.15,24a3.66,3.66,0,0,0-1.3,2.91A3.76,3.76,0,0,0,149,29.64a4.17,4.17,0,0,0,3.09,1.12,9.19,9.19,0,0,0,6.37-2.83Z"/><path class="b" d="M169.17,14.45V10.33h3.07V6.69l4.64-4.25v7.89h4.37v4.12h-4.37V25.93a10.53,10.53,0,0,0,.31,3.4c.2.44.71.65,1.52.65a6.83,6.83,0,0,0,2.54-.49v4.23a10.65,10.65,0,0,1-3.56.63,5.79,5.79,0,0,1-3.45-.94,4,4,0,0,1-1.66-2.36,24.32,24.32,0,0,1-.34-4.88V14.45Z"/><path class="b" d="M206.91,10.33v8.93h-4.15a5.58,5.58,0,0,0-2.09-3.93A6.54,6.54,0,0,0,196.56,14a6.46,6.46,0,0,0-5.08,2.21,8.46,8.46,0,0,0-1.95,5.8,9.75,9.75,0,0,0,1.85,5.9,6.24,6.24,0,0,0,5.37,2.55,7.36,7.36,0,0,0,7.08-4.64l3.84,1.81q-3.18,7.05-11.11,7.05a10.91,10.91,0,0,1-8.84-3.83A13.31,13.31,0,0,1,184.5,22,11.9,11.9,0,0,1,188,13.15a11.21,11.21,0,0,1,8.11-3.48A9.85,9.85,0,0,1,202.76,12V10.33Z"/><path class="b" d="M214.09,29.83V4.13h-4.28V0h8.92V13q4.17-3.37,7.93-3.37a7,7,0,0,1,3.86,1,5,5,0,0,1,2.06,2.58,15.08,15.08,0,0,1,.55,4.68V29.83h4V34h-8.67V19.51a24.37,24.37,0,0,0-.17-3.59,2.38,2.38,0,0,0-.94-1.49,2.92,2.92,0,0,0-1.82-.59q-2.69,0-6.83,3.05V29.83h4.1V34h-13V29.83Z"/><path class="a" d="M264.26,23.32H244.38A8.63,8.63,0,0,0,247,28.61a7.7,7.7,0,0,0,5.5,2,9,9,0,0,0,7.69-3.91l4.1,1.81a12.37,12.37,0,0,1-5.2,4.6,15.59,15.59,0,0,1-6.69,1.5,13.53,13.53,0,0,1-9.27-3.38,11.53,11.53,0,0,1-3.84-9.12,11.75,11.75,0,0,1,3.75-9,12.2,12.2,0,0,1,8.6-3.51,12.67,12.67,0,0,1,8.63,3.43Q264.11,16.54,264.26,23.32ZM259.47,20a8.42,8.42,0,0,0-2.59-4.51,7.16,7.16,0,0,0-5.15-2A6.76,6.76,0,0,0,247,15.25a7.73,7.73,0,0,0-2.41,4.7Z"/><path class="a" d="M293.77,29.83V34h-8.71V31.25q-4.08,3.11-7.81,3.1a6.91,6.91,0,0,1-3.92-1,5,5,0,0,1-2.07-2.68,19.74,19.74,0,0,1-.51-5.31V14.45h-3.34V10.33h8v14.4a26.28,26.28,0,0,0,.15,3.52,2.34,2.34,0,0,0,.85,1.49,2.7,2.7,0,0,0,1.78.58q3.22,0,6.89-3.07V14.45h-4.18V10.33h8.82v19.5Z"/><path class="a" d="M300.12,29.83V14.45h-4.76V10.33h8.47v5.32A9.35,9.35,0,0,1,306,12.21,6.82,6.82,0,0,1,309,10.4a16.23,16.23,0,0,1,4.23-.44h1.22v4.69h-.92a14.7,14.7,0,0,0-5.29.71,4.79,4.79,0,0,0-2.59,2.57q-.84,1.88-.84,6.7v5.2h5.15V34H295.36V29.83Z"/><path class="a" d="M315,22.14a12,12,0,0,1,3.62-9,12.19,12.19,0,0,1,8.81-3.5,12.37,12.37,0,0,1,8.77,3.45,11.85,11.85,0,0,1,3.66,9,11.92,11.92,0,0,1-3.65,9,12.29,12.29,0,0,1-8.78,3.46A12.12,12.12,0,0,1,315,22.14Zm4.91,0a7.87,7.87,0,0,0,2.19,5.74,7.49,7.49,0,0,0,10.69,0A7.94,7.94,0,0,0,335,22.13a7.82,7.82,0,0,0-2.2-5.72,7.16,7.16,0,0,0-5.32-2.25,7,7,0,0,0-5.39,2.3A8,8,0,0,0,319.92,22.13Z"/><path class="a" d="M346.44,40.43v-26h-4V10.33h8.61V14a10.65,10.65,0,0,1,8.4-4.08,10.89,10.89,0,0,1,8.24,3.42A12.32,12.32,0,0,1,371,22.27a11.8,11.8,0,0,1-3.54,9.05A11.39,11.39,0,0,1,351.07,31v9.4h4.59v4.13H342.11V40.43ZM351,22.49a8.92,8.92,0,0,0,.81,3.73,7.23,7.23,0,0,0,6.69,4.2A7.33,7.33,0,0,0,364,28.2a8.39,8.39,0,0,0,2.16-6.11,7.71,7.71,0,0,0-2.26-5.9,7.3,7.3,0,0,0-5.14-2.13,7.47,7.47,0,0,0-5.41,2.31A8.25,8.25,0,0,0,351,22.49Z"/><path class="a" d="M399.83,23.32H380a8.57,8.57,0,0,0,2.58,5.29,7.72,7.72,0,0,0,5.5,2,9,9,0,0,0,7.69-3.91l4.1,1.81a12.37,12.37,0,0,1-5.2,4.6,15.56,15.56,0,0,1-6.69,1.5,13.55,13.55,0,0,1-9.27-3.38,11.53,11.53,0,0,1-3.84-9.12,11.75,11.75,0,0,1,3.75-9,12.21,12.21,0,0,1,8.6-3.51,12.67,12.67,0,0,1,8.63,3.43Q399.68,16.54,399.83,23.32ZM395,20a8.4,8.4,0,0,0-2.58-4.51,7.18,7.18,0,0,0-5.16-2,6.76,6.76,0,0,0-4.76,1.82,7.78,7.78,0,0,0-2.41,4.7Z"/></svg>