<svg width="514" height="593" viewBox="0 0 514 593" fill="none" xmlns="http://www.w3.org/2000/svg">
<path fill-rule="evenodd" clip-rule="evenodd" d="M302.879 30.1948C358.288 16.1054 427.597 -21.5224 470.34 16.5407C515.481 56.7398 478.145 133.79 486.535 193.745C492.041 233.086 510.149 268.165 511.109 307.88C512.228 354.162 523.432 408.264 492.551 442.676C461.642 477.119 401.595 453.819 360.733 475.45C303.748 505.615 273.967 605.355 210.979 591.729C150.127 578.564 163.142 480.298 132.349 426.041C109.293 385.416 71.9257 356.684 53.2705 313.847C29.3611 258.944 -20.6292 195.256 9.25344 143.38C40.0842 89.8587 124.816 111.949 182.347 89.7716C225.021 73.3217 258.563 41.4635 302.879 30.1948Z" fill="#EAF7FF"/>
</svg>
