<svg width="559" height="585" viewBox="0 0 559 585" fill="none" xmlns="http://www.w3.org/2000/svg">
<path fill-rule="evenodd" clip-rule="evenodd" d="M304.641 5.20988C361.63 25.6324 358.537 113.375 404.781 152.489C441.582 183.615 508.998 163.131 537.412 202.087C565.674 240.837 564.478 299.74 543.729 342.994C523.866 384.402 461.091 383.645 432.926 419.903C402.069 459.627 417.825 527.018 377.476 557.018C336.182 587.722 274.343 593.374 227.149 572.904C180.597 552.712 174.141 488.855 138.034 453.163C97.3028 412.9 20.6954 406.617 3.59166 351.917C-13.2064 298.195 33.0223 246.191 57.4665 195.499C81.3733 145.921 101.118 92.8387 144.701 59.2864C190.236 24.2304 250.566 -14.1686 304.641 5.20988Z" fill="#FFF4F5"/>
</svg>
