<svg width="378" height="397" viewBox="0 0 378 397" fill="none" xmlns="http://www.w3.org/2000/svg">
  <path fill-rule="evenodd" clip-rule="evenodd" d="M345.097 30.1087C376.076 66.6483 339.252 125.533 355.475 170.626C368.385 206.51 422.689 219.152 426.754 257.082C430.797 294.81 406.68 334.689 375.353 356.11C345.362 376.617 302.64 351.26 268.997 364.954C232.138 379.958 216.282 432.359 176.764 436.946C136.32 441.64 91.7044 421.044 67.457 388.347C43.5391 356.095 64.3718 309.795 53.743 271.057C41.7531 227.359 -8.26347 192.743 1.6493 148.503C11.3849 105.054 63.6355 87.7198 100.437 62.665C136.43 38.161 170.957 9.60944 214.096 3.86902C259.168 -2.12869 315.701 -4.56301 345.097 30.1087Z" fill="#FFF4F5"/>
</svg>
