<svg width="424" height="407" viewBox="0 0 424 407" fill="none" xmlns="http://www.w3.org/2000/svg">
  <path fill-rule="evenodd" clip-rule="evenodd" d="M300.26 45.8893C343.917 58.1753 406.469 59.7865 420.718 102.915C435.766 148.464 379.525 186.646 361.483 231.205C349.644 260.444 348.156 291.751 333.046 319.445C315.438 351.717 301.654 393.367 266.776 404.786C231.868 416.214 199.87 376.375 163.212 375.045C112.089 373.19 52.0288 429.972 14.1704 395.619C-22.4045 362.431 25.5532 300.013 25.9432 250.487C26.2352 213.404 11.9743 178.825 16.1679 141.966C21.5428 94.7258 12.4899 31.0998 53.6151 7.27547C96.0452 -17.3048 145.48 31.492 193.806 39.0578C229.653 44.6698 265.343 36.063 300.26 45.8893Z" fill="#EAF7FF"/>
</svg>
