<svg class="spot-blue" width="200" height="231" viewBox="0 0 200 231" fill="none"
  xmlns="http://www.w3.org/2000/svg">
  <path fill-rule="evenodd" clip-rule="evenodd" d="M117.852 11.7622C139.412 6.27378 166.38 -8.38395 183.012 6.44334C200.576 22.1027 186.049 52.1173 189.313 75.4722C191.455 90.7973 198.502 104.462 198.875 119.933C199.31 137.962 203.67 159.037 191.654 172.442C179.627 185.859 156.263 176.783 140.363 185.209C118.19 196.96 106.602 235.813 82.093 230.505C58.4151 225.376 63.4795 187.098 51.4978 165.962C42.5265 150.137 27.9866 138.944 20.7278 122.257C11.4246 100.87 -8.02694 76.0611 3.60056 55.8531C15.597 35.004 48.5665 43.609 70.9522 34.9701C87.557 28.5621 100.608 16.1519 117.852 11.7622Z" fill="#EAF7FF" />
</svg>
