<svg class="spot-red" width="217" height="227" viewBox="0 0 217 227" fill="none"
  xmlns="http://www.w3.org/2000/svg">
  <path fill-rule="evenodd" clip-rule="evenodd" d="M118.26 2.02161C140.382 9.94623 139.182 43.9936 157.133 59.1709C171.419 71.249 197.59 63.3004 208.62 78.4169C219.591 93.4529 219.127 116.309 211.072 133.093C203.361 149.161 178.992 148.867 168.059 162.937C156.08 178.351 162.197 204.501 146.534 216.142C130.503 228.056 106.498 230.249 88.1778 222.306C70.1064 214.471 67.6005 189.692 53.5839 175.843C37.7723 160.219 8.0338 157.781 1.39426 136.556C-5.12663 115.71 12.819 95.5305 22.3081 75.8602C31.5886 56.6223 39.2533 36.0246 56.1718 23.0052C73.8485 9.40222 97.268 -5.4979 118.26 2.02161Z" fill="#FFF4F5" />
</svg>
