<svg width="128" height="128" viewBox="0 0 128 128" fill="none" xmlns="http://www.w3.org/2000/svg">
<g filter="url(#filter0_i_1091_164)">
<g clip-path="url(#clip0_1091_164)">
<rect width="128" height="128" rx="32" fill="white"/>
<path d="M69.5929 28.006L61.9763 20.3405L36.4766 46.003L27.5352 37.0044L19.9185 44.6699L36.4766 61.3339L69.5929 28.006Z" fill="#002B7F"/>
<path d="M98.9807 20.3405L65.6526 53.6684L73.318 61.3339L106.646 28.006L98.9807 20.3405Z" fill="#1D1C1C"/>
<path d="M53.6686 65.6526L20.3405 98.9805L28.0058 106.646L61.334 73.3181L53.6686 65.6526Z" fill="#1D1C1C"/>
<path d="M32.6385 71.8016C32.6385 75.1976 29.8855 77.9506 26.4895 77.9506C23.0935 77.9506 20.3405 75.1976 20.3405 71.8016C20.3405 68.4056 23.0935 65.6526 26.4895 65.6526C29.8855 65.6526 32.6385 68.4056 32.6385 71.8016Z" fill="#0070F4"/>
<path d="M61.3339 100.497C61.3339 103.893 58.5809 106.646 55.1849 106.646C51.7889 106.646 49.0359 103.893 49.0359 100.497C49.0359 97.101 51.7889 94.348 55.1849 94.348C58.5809 94.348 61.3339 97.101 61.3339 100.497Z" fill="#D04646"/>
<path d="M106.646 73.3182L99.0709 65.6527L86.3904 78.4839L73.7101 65.6526L66.1349 73.318L78.8152 86.1493L66.1349 98.9805L73.7101 106.646L86.3904 93.8148L99.0707 106.646L106.646 98.9806L93.9657 86.1494L106.646 73.3182Z" fill="#CE1126"/>
<path fill-rule="evenodd" clip-rule="evenodd" d="M55.1372 3.9674C76.8186 10.0805 107.877 10.9074 114.97 32.3054C122.462 54.9042 94.5552 73.8172 85.617 95.9103C79.752 110.408 79.0266 125.935 71.5368 139.664C62.8085 155.663 55.9831 176.316 38.6713 181.964C21.3442 187.617 5.43935 167.843 -12.7625 167.167C-38.1461 166.224 -67.9414 194.361 -86.7535 177.305C-104.928 160.828 -81.1443 129.89 -80.9726 105.326C-80.844 86.9328 -87.94 69.775 -85.8741 51.495C-83.2264 28.0666 -87.7494 -3.49564 -67.341 -15.2942C-46.285 -27.4671 -21.7186 -3.2422 2.27908 0.53181C20.0795 3.33121 37.7964 -0.921875 55.1372 3.9674Z" fill="#002B7F"/>
<path fill-rule="evenodd" clip-rule="evenodd" d="M181.831 81.1327C194.507 94.1428 215.861 107.242 212.188 125.044C208.309 143.845 181.196 145.801 166.048 157.625C156.108 165.384 149.341 175.934 138.576 182.502C126.031 190.155 112.938 201.825 98.5726 198.789C84.194 195.751 81.0597 175.53 68.6219 167.72C51.2766 156.827 19.127 164.463 12.8665 144.968C6.81825 126.135 35.899 114.12 45.9223 97.0356C53.4273 84.2436 55.3894 69.4014 64.2017 57.4694C75.4958 42.1768 85.062 18.3133 104.07 18.3025C123.681 18.2913 131.069 45.1121 146.305 57.4227C157.607 66.5542 171.693 70.7272 181.831 81.1327Z" fill="#CE1126"/>
<g filter="url(#filter1_b_1091_164)">
<rect width="128" height="128" fill="white" fill-opacity="0.05"/>
</g>
<path d="M71.5929 28.006L63.9763 20.3405L38.4766 46.003L29.5352 37.0044L21.9185 44.6699L38.4766 61.3339L71.5929 28.006Z" fill="#FCD116"/>
<path d="M100.981 20.3405L67.6526 53.6684L75.318 61.3339L108.646 28.006L100.981 20.3405Z" fill="#FCD116"/>
<path d="M55.6686 65.6526L22.3405 98.9805L30.0058 106.646L63.334 73.3181L55.6686 65.6526Z" fill="#FCD116"/>
<path d="M34.6385 71.8016C34.6385 75.1976 31.8855 77.9506 28.4895 77.9506C25.0935 77.9506 22.3405 75.1976 22.3405 71.8016C22.3405 68.4056 25.0935 65.6526 28.4895 65.6526C31.8855 65.6526 34.6385 68.4056 34.6385 71.8016Z" fill="#FCD116"/>
<path d="M63.3339 100.497C63.3339 103.893 60.5809 106.646 57.1849 106.646C53.7889 106.646 51.0359 103.893 51.0359 100.497C51.0359 97.101 53.7889 94.348 57.1849 94.348C60.5809 94.348 63.3339 97.101 63.3339 100.497Z" fill="#FCD116"/>
<path d="M108.646 73.3182L101.071 65.6527L88.3905 78.4839L75.7101 65.6526L68.1349 73.318L80.8152 86.1493L68.1349 98.9805L75.7101 106.646L88.3904 93.8148L101.071 106.646L108.646 98.9806L95.9657 86.1494L108.646 73.3182Z" fill="#FCD116"/>
</g>
</g>
<defs>
<filter id="filter0_i_1091_164" x="0" y="0" width="128" height="128" filterUnits="userSpaceOnUse" color-interpolation-filters="sRGB">
<feFlood flood-opacity="0" result="BackgroundImageFix"/>
<feBlend mode="normal" in="SourceGraphic" in2="BackgroundImageFix" result="shape"/>
<feColorMatrix in="SourceAlpha" type="matrix" values="0 0 0 0 0 0 0 0 0 0 0 0 0 0 0 0 0 0 127 0" result="hardAlpha"/>
<feOffset/>
<feGaussianBlur stdDeviation="2"/>
<feComposite in2="hardAlpha" operator="arithmetic" k2="-1" k3="1"/>
<feColorMatrix type="matrix" values="0 0 0 0 0 0 0 0 0 0 0 0 0 0 0 0 0 0 0.25 0"/>
<feBlend mode="normal" in2="shape" result="effect1_innerShadow_1091_164"/>
</filter>
<filter id="filter1_b_1091_164" x="-48" y="-48" width="224" height="224" filterUnits="userSpaceOnUse" color-interpolation-filters="sRGB">
<feFlood flood-opacity="0" result="BackgroundImageFix"/>
<feGaussianBlur in="BackgroundImageFix" stdDeviation="24"/>
<feComposite in2="SourceAlpha" operator="in" result="effect1_backgroundBlur_1091_164"/>
<feBlend mode="normal" in="SourceGraphic" in2="effect1_backgroundBlur_1091_164" result="shape"/>
</filter>
<clipPath id="clip0_1091_164">
<rect width="128" height="128" rx="32" fill="white"/>
</clipPath>
</defs>
</svg>
