<svg width="128" height="128" viewBox="0 0 128 128" fill="none" xmlns="http://www.w3.org/2000/svg">
<path fill-rule="evenodd" clip-rule="evenodd" d="M32 0C14.3269 0 0 14.3269 0 32V96C0 113.673 14.3269 128 32 128H96C113.673 128 128 113.673 128 96V32C128 14.3269 113.673 0 96 0H32ZM63.0578 21L70.6744 28.6655L37.5581 61.9935L21 45.3294L28.6167 37.6639L37.5581 46.6626L63.0578 21ZM66.7341 54.3279L100.062 21L107.728 28.6655L74.3995 61.9935L66.7341 54.3279ZM54.7501 66.3121L21.422 99.6401L29.0874 107.306L62.4155 73.9777L54.7501 66.3121ZM27.571 78.6102C30.967 78.6102 33.72 75.8572 33.72 72.4612C33.72 69.0651 30.967 66.3121 27.571 66.3121C24.175 66.3121 21.422 69.0651 21.422 72.4612C21.422 75.8572 24.175 78.6102 27.571 78.6102ZM62.4155 101.157C62.4155 104.553 59.6624 107.306 56.2664 107.306C52.8704 107.306 50.1174 104.553 50.1174 101.157C50.1174 97.7606 52.8704 95.0076 56.2664 95.0076C59.6624 95.0076 62.4155 97.7606 62.4155 101.157ZM100.152 66.3122L107.728 73.9777L95.0472 86.8089L107.727 99.6402L100.152 107.306L87.4719 94.4743L74.7916 107.306L67.2164 99.64L79.8967 86.8089L67.2164 73.9776L74.7916 66.3121L87.472 79.1435L100.152 66.3122Z" fill="white"/>
</svg>
