<?xml version="1.0" standalone="no"?>
<!DOCTYPE svg PUBLIC "-//W3C//DTD SVG 20010904//EN"
 "http://www.w3.org/TR/2001/REC-SVG-20010904/DTD/svg10.dtd">
<svg version="1.0" xmlns="http://www.w3.org/2000/svg"
 width="500.000000pt" height="500.000000pt" viewBox="0 0 500.000000 500.000000"
 preserveAspectRatio="xMidYMid meet">
<metadata>
Created by potrace 1.14, written by Peter Selinger 2001-2017
</metadata>
<g transform="translate(0.000000,500.000000) scale(0.100000,-0.100000)"
fill="#000000" stroke="none">
<path d="M1020 4996 c0 -3 7 -12 16 -20 14 -15 12 -16 -21 -10 -29 4 -36 3
-30 -8 6 -10 5 -11 -5 -1 -11 10 -17 10 -29 0 -12 -10 -13 -9 -6 2 6 11 5 12
-6 5 -8 -4 -29 -9 -46 -9 -30 -1 -62 -15 -35 -15 7 0 12 -7 12 -16 0 -14 -1
-14 -16 0 -17 17 -28 21 -20 7 3 -5 -1 -12 -10 -15 -10 -4 -13 -2 -8 7 5 8 2
7 -9 -2 -9 -7 -17 -10 -17 -7 0 4 -6 1 -14 -6 -8 -7 -12 -15 -11 -18 2 -3 -12
-5 -30 -5 -19 1 -32 -2 -29 -7 5 -7 -19 -13 -40 -9 -5 1 -3 -5 4 -14 7 -8 10
-18 6 -22 -3 -3 -6 -2 -6 4 0 6 -10 10 -22 9 -14 -1 -22 -7 -20 -16 3 -11 0
-11 -12 -1 -11 9 -16 9 -22 0 -4 -7 -3 -9 3 -6 6 4 13 1 16 -7 4 -10 0 -12
-15 -8 -16 4 -19 2 -13 -9 7 -12 6 -12 -7 -1 -19 15 -34 0 -22 -20 5 -9 2 -8
-9 1 -15 12 -17 12 -11 -4 5 -13 4 -16 -4 -11 -7 4 -12 2 -12 -3 0 -6 -5 -11
-11 -11 -5 0 -7 5 -3 12 4 7 3 8 -5 4 -6 -4 -9 -12 -6 -17 4 -5 1 -9 -5 -9 -6
0 -8 -4 -5 -10 4 -6 -1 -7 -11 -3 -13 5 -15 2 -9 -16 5 -16 3 -22 -7 -20 -28
3 -39 -1 -32 -13 6 -10 5 -10 -8 -1 -17 15 -28 8 -28 -18 0 -12 -5 -16 -14
-13 -9 3 -17 -6 -24 -25 -6 -17 -16 -31 -23 -31 -8 0 -7 5 2 18 13 15 12 16
-3 4 -9 -8 -14 -20 -11 -28 3 -8 -1 -14 -10 -14 -21 0 -31 -17 -16 -26 8 -4 9
-3 5 4 -4 7 -2 12 4 12 7 0 10 -6 7 -12 -2 -7 -10 -13 -18 -13 -8 0 -14 -7
-14 -15 0 -8 -10 -19 -22 -25 -13 -5 -22 -16 -20 -25 1 -10 -5 -14 -17 -12
-10 2 -15 -1 -12 -7 4 -5 1 -13 -5 -16 -5 -4 -8 -13 -5 -21 3 -8 1 -14 -4 -14
-5 0 -7 -7 -4 -15 4 -10 0 -13 -14 -10 -16 3 -20 -1 -17 -22 2 -20 -1 -24 -16
-20 -11 3 -22 0 -26 -5 -3 -6 -1 -8 5 -4 17 10 20 -17 5 -41 -8 -12 -13 -27
-12 -35 3 -26 -1 -39 -12 -32 -8 4 -7 9 2 16 11 8 11 9 -1 5 -14 -3 -21 -36
-22 -107 0 -21 -1 -22 -10 -7 -10 20 -28 14 -28 -9 0 -10 5 -12 13 -8 9 6 9 4
-1 -8 -7 -8 -10 -22 -6 -31 3 -8 0 -18 -6 -22 -8 -5 -7 -11 2 -23 7 -10 8 -14
4 -10 -12 10 -39 -29 -42 -61 -2 -14 2 -29 9 -33 9 -6 9 -8 0 -8 -19 0 -19
-2810 0 -2810 9 0 9 -2 1 -8 -7 -4 -11 -25 -9 -47 4 -55 4 -55 16 -55 5 0 8 4
5 9 -3 5 1 12 9 15 13 4 13 2 5 -14 -7 -12 -7 -21 0 -25 7 -4 7 -13 0 -26 -9
-15 -7 -19 5 -19 8 0 15 -8 15 -17 0 -15 -2 -16 -10 -3 -8 12 -10 12 -10 1 0
-8 8 -20 17 -28 16 -13 16 -14 1 -9 -12 3 -15 1 -11 -9 4 -12 9 -12 26 -3 19
10 20 9 10 -4 -10 -11 -10 -17 0 -28 10 -10 9 -11 -3 -5 -9 5 -8 0 4 -14 20
-22 20 -22 0 -15 -18 7 -18 7 -2 -13 20 -22 24 -38 6 -27 -7 4 -8 3 -4 -5 4
-6 11 -9 16 -6 4 3 14 -2 21 -11 10 -13 10 -17 -2 -25 -8 -5 -9 -9 -2 -9 21 0
44 -31 38 -51 -4 -11 -2 -19 5 -19 7 0 9 -9 6 -22 -3 -13 -3 -17 0 -10 7 15
34 16 34 1 0 -5 -6 -7 -12 -3 -10 6 -10 5 -1 -8 7 -8 9 -19 5 -23 -4 -5 -1 -5
5 -1 8 4 13 1 13 -9 0 -9 5 -13 10 -10 6 4 7 11 4 17 -4 6 -2 8 4 5 5 -4 8
-17 4 -29 -4 -16 -2 -19 9 -13 11 7 11 5 -1 -10 -10 -13 -11 -16 -2 -11 9 5
12 3 10 -6 -2 -7 2 -14 7 -14 6 0 9 7 7 16 -2 13 -1 13 7 0 5 -8 7 -18 5 -22
-5 -7 9 -12 27 -10 3 1 6 -6 6 -14 0 -10 -4 -11 -11 -4 -5 5 -14 10 -19 10 -5
0 -2 -7 7 -15 8 -8 20 -15 26 -15 6 0 8 -4 5 -10 -3 -5 -1 -10 5 -10 6 0 8 -4
5 -10 -3 -5 -2 -10 4 -10 5 0 12 6 14 13 5 11 11 -28 8 -47 -1 -5 6 -3 15 5
10 8 15 9 11 3 -4 -7 0 -15 9 -18 8 -3 13 -10 9 -15 -3 -5 0 -13 6 -17 8 -4 9
-3 5 4 -4 7 -4 12 -1 12 11 0 34 -27 30 -34 -3 -3 1 -2 7 4 16 13 28 13 28 -1
0 -5 -4 -8 -9 -5 -5 3 -11 0 -14 -7 -4 -10 3 -13 23 -12 20 1 27 -2 23 -12 -3
-7 -10 -10 -17 -6 -6 3 -7 2 -3 -3 5 -5 13 -10 18 -10 5 -1 11 -3 14 -4 7 -4
23 -7 38 -9 8 -1 7 -4 -3 -11 -13 -8 -13 -10 2 -10 9 0 18 -6 21 -12 3 -10 7
-10 20 0 14 12 16 11 12 -10 -4 -23 -4 -23 11 -3 16 19 16 19 9 -5 -7 -22 -6
-23 8 -12 13 11 15 10 10 -10 -5 -23 -5 -23 11 -3 10 11 15 14 11 8 -3 -7 -1
-13 5 -13 6 0 8 -4 5 -10 -3 -5 1 -10 10 -10 9 0 14 -4 11 -8 -6 -10 24 -9 40
1 7 4 23 -4 36 -16 14 -13 31 -21 38 -19 7 3 10 0 7 -5 -3 -5 5 -9 19 -9 13 0
24 4 24 9 0 4 5 5 10 2 8 -5 7 -11 -1 -21 -6 -8 -8 -14 -3 -15 5 0 17 -2 26
-4 12 -2 15 2 11 13 -3 10 4 7 17 -8 12 -14 18 -18 14 -10 -5 12 -4 12 6 3 8
-8 20 -9 36 -3 14 6 26 6 29 0 9 -15 38 -12 29 3 -4 6 2 4 13 -6 11 -9 23 -15
26 -12 4 3 5 2 2 -2 -8 -10 -36 -13 -30 -2 4 5 -1 6 -10 2 -13 -4 -14 -8 -4
-14 7 -4 651 -8 1430 -9 1349 -1 1418 0 1429 17 11 17 11 17 6 0 -5 -17 0 -18
61 -14 53 4 71 10 84 26 11 13 20 17 24 11 3 -6 11 -8 16 -4 5 3 7 9 4 14 -3
5 0 12 6 16 7 4 9 3 5 -4 -3 -6 -2 -13 4 -17 5 -3 10 0 10 7 1 9 4 8 13 -3 10
-14 14 -14 25 -3 13 15 16 28 4 20 -4 -2 -14 0 -22 5 -13 9 -13 10 0 6 8 -2
27 0 43 4 18 5 25 4 21 -3 -4 -6 1 -6 14 1 11 6 29 8 39 5 16 -6 16 -5 -2 10
-11 10 -14 14 -7 11 8 -4 19 1 26 11 10 13 15 14 21 4 6 -9 4 -11 -5 -5 -9 5
-11 4 -6 -4 10 -15 39 6 32 24 -2 6 2 12 10 12 7 0 11 -4 9 -8 -3 -4 1 -9 9
-12 9 -4 12 0 9 12 -4 14 1 18 19 17 32 -3 41 3 28 19 -8 10 -8 15 1 21 8 4 9
3 5 -4 -10 -17 10 -15 27 3 8 8 17 11 21 8 3 -4 6 -1 6 5 0 7 5 12 11 12 5 0
7 -5 3 -12 -4 -7 -3 -8 4 -4 6 4 9 13 6 21 -4 10 0 13 14 10 16 -3 20 1 17 16
-3 13 0 19 8 16 7 -3 11 -10 9 -16 -1 -7 2 -10 7 -6 6 3 7 13 4 22 -4 10 -2
14 5 9 6 -3 13 -2 17 4 4 6 11 8 16 5 5 -3 6 1 3 9 -6 14 5 21 29 17 6 -1 8 6
6 26 0 5 10 10 23 13 13 3 25 15 27 25 3 18 2 18 -15 5 -18 -14 -18 -14 -5 3
8 9 16 15 19 12 3 -3 11 4 19 15 8 11 21 20 29 20 8 0 12 5 9 10 -4 6 -12 7
-18 3 -7 -4 -6 0 2 10 14 18 26 23 17 8 -3 -5 0 -11 8 -14 9 -4 12 2 10 19 -1
13 2 24 7 24 5 0 9 -5 9 -12 0 -6 3 -8 6 -5 4 4 2 13 -5 21 -9 11 -8 14 6 12
12 -1 18 6 17 21 0 15 5 20 17 18 10 -2 20 3 23 11 4 10 2 13 -7 8 -8 -5 -8
-2 2 9 7 9 11 24 7 32 -3 9 -2 14 3 10 5 -3 12 1 14 7 4 10 6 10 6 0 1 -7 5
-11 11 -7 5 3 6 13 3 22 -4 9 -2 14 3 10 5 -3 10 6 9 21 0 15 5 27 12 27 18 0
22 8 25 48 1 22 7 36 13 33 6 -2 12 7 13 21 3 32 11 45 24 37 7 -4 8 -2 4 5
-4 6 -12 9 -17 6 -5 -4 -9 -1 -9 5 0 6 9 10 20 8 10 -2 19 2 19 7 0 6 -8 9
-17 7 -14 -2 -13 0 3 13 17 14 18 17 5 25 -11 7 -11 10 -2 10 7 0 10 4 7 10
-3 5 -2 10 3 10 6 0 8 10 4 22 -3 12 -1 19 5 15 14 -9 9 28 -7 50 -8 10 -10
15 -6 11 5 -4 16 -2 24 5 9 6 13 7 10 2 -4 -6 -2 -17 3 -25 7 -12 8 -11 6 5
-1 11 -7 26 -11 34 -6 10 -5 12 2 7 7 -4 12 -3 12 3 0 5 -6 12 -12 14 -10 4
-10 6 0 6 10 1 12 283 12 1413 -1 1324 -2 1412 -18 1425 -16 12 -16 13 1 7 9
-3 17 -1 17 5 0 6 -4 11 -10 11 -5 0 -10 5 -10 11 0 5 5 7 11 3 8 -5 8 -1 0
14 -7 14 -7 22 -1 25 6 3 5 4 -2 3 -7 -2 -13 -8 -13 -14 0 -5 -4 -14 -9 -19
-5 -4 -6 -3 -2 4 3 6 2 14 -3 17 -4 3 -5 24 -1 46 4 22 3 43 -2 46 -5 3 -6 15
-3 27 5 17 4 19 -4 7 -14 -20 -25 -6 -13 17 8 14 6 23 -10 40 -18 19 -19 25
-8 38 12 14 10 15 -14 11 -15 -3 -24 -1 -21 5 4 5 11 7 16 4 16 -11 10 7 -8
22 -11 8 -12 11 -3 7 12 -7 13 -5 3 8 -7 8 -9 18 -5 23 4 4 -3 4 -15 1 -24 -8
-32 7 -11 20 7 4 8 3 4 -4 -10 -17 -1 -15 14 3 10 12 8 14 -9 10 -14 -2 -21 1
-21 11 0 8 -4 13 -8 10 -5 -3 -9 1 -9 9 0 8 4 15 9 15 5 0 7 4 3 10 -3 5 -13
6 -23 3 -15 -6 -16 -5 -2 12 9 11 10 16 3 11 -8 -4 -13 -2 -13 4 0 6 -5 8 -12
4 -10 -6 -10 -4 0 8 11 14 10 18 -10 29 -13 7 -24 12 -25 11 -2 -1 -6 -2 -10
-2 -5 0 -2 4 6 9 18 12 5 32 -16 24 -10 -4 -14 -2 -10 4 8 13 -20 46 -32 39
-4 -3 -8 2 -8 10 0 10 4 11 11 4 5 -5 14 -10 19 -10 5 0 2 7 -7 15 -8 8 -20
15 -26 15 -6 0 -9 4 -6 8 2 4 1 14 -5 22 -7 13 -9 12 -9 -2 0 -9 -4 -19 -9
-23 -5 -3 -8 7 -7 22 2 16 1 34 -1 41 -6 13 -39 17 -46 5 -2 -5 -2 -2 0 5 3
15 -20 42 -37 42 -6 0 -8 6 -4 13 6 10 4 10 -7 0 -16 -16 -29 -17 -29 -2 0 5
4 8 9 5 5 -3 11 0 14 7 3 9 -2 13 -16 12 -34 -3 -45 5 -41 28 2 12 2 16 -2 9
-4 -9 -10 -7 -22 6 -10 10 -12 11 -7 2 9 -13 8 -13 -7 -2 -9 8 -14 20 -11 28
3 8 0 14 -6 14 -6 0 -11 -6 -11 -12 0 -10 -3 -9 -9 1 -5 7 -13 11 -18 8 -5 -3
-15 -1 -23 5 -12 8 -12 9 2 4 15 -4 16 -3 6 14 -9 14 -14 16 -20 7 -7 -10 -11
-4 -10 13 0 3 -14 5 -31 5 -26 0 -31 4 -29 19 3 18 2 18 -14 5 -14 -11 -16
-11 -9 0 6 11 1 13 -23 9 -30 -4 -38 8 -17 25 6 5 4 7 -5 4 -8 -2 -23 0 -34 5
-14 8 -17 7 -11 -4 3 -7 0 -5 -8 5 -14 17 -33 25 -24 10 3 -5 -5 -8 -18 -8
-13 0 -21 3 -19 6 6 11 -24 31 -36 24 -5 -3 -10 -1 -10 6 0 9 -4 9 -15 -1 -15
-13 -39 -5 -30 11 11 16 -7 10 -22 -8 -8 -10 -12 -13 -8 -6 4 9 -4 11 -28 10
-21 -2 -34 1 -34 9 0 7 9 12 19 11 10 -1 18 -5 18 -10 0 -4 5 -5 10 -2 5 3 10
10 10 15 0 6 -595 9 -1454 10 -1340 0 -1454 -1 -1460 -16 -6 -16 -8 -16 -24 0
-18 15 -32 21 -32 12z m90 -10 c0 -3 -4 -8 -10 -11 -5 -3 -10 -1 -10 4 0 6 5
11 10 11 6 0 10 -2 10 -4z m-204 -48 c3 -4 -1 -5 -10 -4 -8 1 -18 5 -22 8 -3
4 1 5 10 4 8 -1 18 -5 22 -8z m3739 -307 c3 -5 2 -12 -3 -15 -5 -3 -9 1 -9 9
0 17 3 19 12 6z m289 -470 c3 -5 -1 -14 -8 -20 -12 -10 -13 -8 -9 8 6 23 9 25
17 12z m21 -89 c-3 -3 -11 0 -18 7 -9 10 -8 11 6 5 10 -3 15 -9 12 -12z
m-4923 -89 c-6 -3 -10 -9 -7 -14 4 -5 2 -17 -4 -26 -8 -15 -10 -14 -7 7 3 31
16 54 25 44 3 -4 0 -9 -7 -11z m-5 -2960 c-11 -11 -17 -13 -17 -5 0 7 5 12 10
12 6 0 10 5 10 11 0 5 -5 7 -12 3 -7 -5 -8 -3 -3 5 5 9 10 10 18 2 8 -8 6 -16
-6 -28z m4563 -683 c0 -5 -5 -10 -11 -10 -5 0 -7 5 -4 10 3 6 8 10 11 10 2 0
4 -4 4 -10z m-40 -40 c0 -5 -5 -10 -11 -10 -5 0 -7 5 -4 10 3 6 8 10 11 10 2
0 4 -4 4 -10z m-3848 -154 c7 4 8 2 4 -5 -9 -13 -26 -5 -25 12 0 9 2 8 6 -1 2
-6 10 -9 15 -6z m3320 -118 c-12 -12 -70 -19 -77 -8 -4 6 1 7 11 3 10 -4 15
-2 11 3 -3 6 9 10 29 10 18 0 30 -4 26 -8z m-92 -8 c0 -5 -4 -10 -10 -10 -5 0
-10 5 -10 10 0 6 5 10 10 10 6 0 10 -4 10 -10z"/>
<path d="M1055 4990 c3 -5 8 -10 11 -10 2 0 4 5 4 10 0 6 -5 10 -11 10 -5 0
-7 -4 -4 -10z"/>
<path d="M4116 4961 c-4 -5 -2 -12 3 -15 5 -4 12 -2 15 3 4 5 2 12 -3 15 -5 4
-12 2 -15 -3z"/>
<path d="M750 4910 c-9 -6 -10 -10 -3 -10 6 0 15 5 18 10 8 12 4 12 -15 0z"/>
<path d="M4306 4872 c-2 -4 4 -8 14 -8 10 0 16 4 14 8 -3 4 -9 8 -14 8 -5 0
-11 -4 -14 -8z"/>
<path d="M4510 4739 c0 -5 5 -7 10 -4 6 3 10 8 10 11 0 2 -4 4 -10 4 -5 0 -10
-5 -10 -11z"/>
<path d="M430 4716 c0 -2 7 -7 16 -10 8 -3 12 -2 9 4 -6 10 -25 14 -25 6z"/>
<path d="M246 4521 c-4 -5 -2 -12 3 -15 5 -4 12 -2 15 3 4 5 2 12 -3 15 -5 4
-12 2 -15 -3z"/>
<path d="M4973 4035 c0 -8 4 -12 9 -9 5 3 6 10 3 15 -9 13 -12 11 -12 -6z"/>
<path d="M120 681 c0 -5 7 -12 16 -15 14 -5 15 -4 4 9 -14 17 -20 19 -20 6z"/>
<path d="M4860 680 c0 -5 5 -10 11 -10 5 0 7 5 4 10 -3 6 -8 10 -11 10 -2 0
-4 -4 -4 -10z"/>
<path d="M4670 399 c0 -5 5 -7 10 -4 6 3 10 8 10 11 0 2 -4 4 -10 4 -5 0 -10
-5 -10 -11z"/>
<path d="M733 107 c0 -7 9 -14 20 -14 11 -1 18 -1 16 0 -2 2 -11 8 -20 15 -12
9 -16 9 -16 -1z"/>
<path d="M983 25 c0 -8 4 -12 9 -9 5 3 6 10 3 15 -9 13 -12 11 -12 -6z"/>
</g>
</svg>
